<svg xmlns="http://www.w3.org/2000/svg" height="48" width="48" viewBox="0 0 48 48"><title>baby bottle</title><g class="nc-icon-wrapper"><path d="M37.728,15.929l5.657-5.657a4,4,0,0,0,0-5.657h0a4,4,0,0,0-5.657,0l-5.657,5.657Z" fill="#f8d4b9"></path><path d="M12.272,46.383A4.982,4.982,0,0,1,8.737,44.92L3.08,39.263a5,5,0,0,1,0-7.071L24.293,10.979a1,1,0,0,1,1.414,0L37.021,22.293a1,1,0,0,1,0,1.414L15.808,44.92A4.985,4.985,0,0,1,12.272,46.383Z" fill="#c2eff4"></path><path d="M39.142,26.829a1,1,0,0,1-.707-.293L21.464,9.565a1,1,0,0,1,0-1.414l4.243-4.243a1,1,0,0,1,1.414,0L44.092,20.879a1,1,0,0,1,0,1.414l-4.243,4.243A1,1,0,0,1,39.142,26.829Z" fill="#857cf8"></path><path d="M20.757,22.586a1,1,0,0,1-.707-.293l-2.828-2.829a1,1,0,0,1,1.414-1.414l2.828,2.829a1,1,0,0,1-.707,1.707Z" fill="#7ed3dd"></path><path d="M16.515,26.829a1,1,0,0,1-.707-.293l-2.829-2.829a1,1,0,1,1,1.415-1.414l2.828,2.829a1,1,0,0,1-.707,1.707Z" fill="#7ed3dd"></path><path d="M12.272,31.071a.993.993,0,0,1-.707-.293L8.737,27.95a1,1,0,0,1,1.414-1.414l2.828,2.828a1,1,0,0,1-.707,1.707Z" fill="#7ed3dd"></path></g></svg>