<svg xmlns="http://www.w3.org/2000/svg" height="48" width="48" viewBox="0 0 48 48"><title>cradle</title><g class="nc-icon-wrapper"><polygon points="9 45 7 45 7 39 11 39 9 45" fill="#7d5731"></polygon><polygon points="39 45 41 45 41 39 37 39 39 45" fill="#7d5731"></polygon><path d="M1,32H47a0,0,0,0,1,0,0v4a5,5,0,0,1-5,5H6a5,5,0,0,1-5-5V32A0,0,0,0,1,1,32Z" fill="#a2703f"></path><path d="M46,3a1,1,0,0,0-1,1V9H3V4A1,1,0,0,0,1,4V32H3V11h9V32h2V11h9V32h2V11h9V32h2V11h9V32h2V4A1,1,0,0,0,46,3Z" fill="#bf8c5a"></path></g></svg>