<svg xmlns="http://www.w3.org/2000/svg" height="48" width="48" viewBox="0 0 48 48"><title>horse hopper</title><g class="nc-icon-wrapper"><path d="M15.394,16.83A8.913,8.913,0,0,0,10,15a9.01,9.01,0,0,0-9,9,1,1,0,0,0,1,1H5a1,1,0,0,0,1-1,5.995,5.995,0,0,1,8.161-5.595l.029.023a1,1,0,0,0,1.2-1.6Z" fill="#a2703f"></path><path d="M45.479,14.273,42,7.75V6a1,1,0,0,0-1-1,11.068,11.068,0,0,0-10.541,7.848A2.967,2.967,0,0,1,27.614,15H19.6a9.027,9.027,0,0,0-8.458,5.924L6.1,34.789a1,1,0,0,0,.48,1.231L9.23,37.387a1,1,0,0,0,1.414-.589,14.1,14.1,0,0,1,12.333-9.745,11.139,11.139,0,0,1,2.066,0A14.087,14.087,0,0,1,37.356,36.8a1,1,0,0,0,.57.623.987.987,0,0,0,.385.077,1,1,0,0,0,.458-.111l2.62-1.352a1,1,0,0,0,.478-1.24L37.041,21.927l1.587-7.144L41.77,17.3a2,2,0,0,0,2.45.04h0l.694-.521A1.988,1.988,0,0,0,45.479,14.273Z" fill="#bf8c5a"></path><path d="M18,17a5,5,0,0,0,10,0V15H19.6a8.891,8.891,0,0,0-1.6.159Z" fill="#363636"></path><path d="M41,5a11.071,11.071,0,0,0-10.532,7.819A3.011,3.011,0,0,1,27.589,15h2.544a2.322,2.322,0,0,0,2.243-1.585l.006-.018A9.06,9.06,0,0,1,41,7h1V6A1,1,0,0,0,41,5Z" fill="#a2703f"></path><path d="M24,42A32.733,32.733,0,0,1,.281,31.932a1,1,0,0,1,1.438-1.391,30.971,30.971,0,0,0,44.562,0,1,1,0,0,1,1.438,1.391A32.733,32.733,0,0,1,24,42Z" fill="#a2703f"></path></g></svg>