<svg xmlns="http://www.w3.org/2000/svg" height="48" width="48" viewBox="0 0 48 48"><title>soap</title><g class="nc-icon-wrapper"><path d="M35.5,19a7.492,7.492,0,0,1-4.988-1.906A5.45,5.45,0,0,1,27.5,18a5.5,5.5,0,0,1,0-11,5.268,5.268,0,0,1,1.784.311A7.5,7.5,0,1,1,35.5,19Z" fill="#a0d9f8"></path><path d="M18.207,44.462a4.99,4.99,0,0,1-2.571-.714L4.428,37.022A5.024,5.024,0,0,1,2,32.735V27.514a5.029,5.029,0,0,1,2.831-4.506L27.623,12.034a4.985,4.985,0,0,1,4.741.218l11.208,6.726A5.024,5.024,0,0,1,46,23.265v5.221a5.029,5.029,0,0,1-2.831,4.506L20.377,43.966A5,5,0,0,1,18.207,44.462Z" fill="#d37ff0"></path><path d="M18.207,34.462a4.99,4.99,0,0,1-2.571-.714L8.485,29.457a1,1,0,0,1,1.03-1.715l7.15,4.291a2.988,2.988,0,0,0,2.845.13L38.336,23.1a1,1,0,1,1,.867,1.8L20.377,33.966A5,5,0,0,1,18.207,34.462Z" fill="#c456eb"></path><path d="M13,24a5,5,0,1,1,5-5A5.006,5.006,0,0,1,13,24Z" fill="#a0d9f8"></path><circle cx="17" cy="5" r="2" fill="#a0d9f8"></circle></g></svg>