<svg xmlns="http://www.w3.org/2000/svg" height="48" width="48" viewBox="0 0 48 48"><title>baby clothes</title><g class="nc-icon-wrapper"><path d="M46.53,8.151l-5.568-3.48A10.994,10.994,0,0,0,35.132,3H32a1,1,0,0,0-1,1A7,7,0,0,1,17,4a1,1,0,0,0-1-1H12.868A10.988,10.988,0,0,0,7.039,4.671L1.47,8.151A1,1,0,0,0,1.02,9.2l2,10a1,1,0,0,0,1.3.752L9,18.388V36a1,1,0,0,0,1,1,7.008,7.008,0,0,1,7,7,1,1,0,0,0,1,1H30a1,1,0,0,0,1-1,7.008,7.008,0,0,1,7-7,1,1,0,0,0,1-1V18.388l4.684,1.56A1.011,1.011,0,0,0,44,20a1,1,0,0,0,.98-.8l2-10A1,1,0,0,0,46.53,8.151Z" fill="#cdcafc"></path><path d="M29.849,25.711a3.932,3.932,0,1,0-5.562-5.558,4.16,4.16,0,0,0-.287.321,3.931,3.931,0,0,0-6.138,4.913,3.825,3.825,0,0,0,.288.322L24,31.561Z" fill="#645aed"></path></g></svg>