<svg xmlns="http://www.w3.org/2000/svg" height="48" width="48" viewBox="0 0 48 48"><title>diaper</title><g class="nc-icon-wrapper"><path d="M1,26A17.019,17.019,0,0,0,18,43H30A17.019,17.019,0,0,0,47,26V6a1,1,0,0,0-1-1H2A1,1,0,0,0,1,6Zm2,0V24.275A17.938,17.938,0,0,1,17.953,41,15.015,15.015,0,0,1,3,26Zm42,0A15.015,15.015,0,0,1,30.047,41,17.938,17.938,0,0,1,45,24.275Z" fill="#c2eff4"></path><path d="M3,26V24.275A17.938,17.938,0,0,1,17.953,41,15.015,15.015,0,0,1,3,26Zm42,0A15.015,15.015,0,0,1,30.047,41,17.938,17.938,0,0,1,45,24.275Z" fill="#58bfca"></path><rect x="1" y="9" width="46" height="7" fill="#dcf6f9"></rect><path d="M39.5,9H47a0,0,0,0,1,0,0v7a0,0,0,0,1,0,0H39.5A3.5,3.5,0,0,1,36,12.5v0A3.5,3.5,0,0,1,39.5,9Z" fill="#7ed3dd"></path><path d="M4.5,9H12a0,0,0,0,1,0,0v7a0,0,0,0,1,0,0H4.5A3.5,3.5,0,0,1,1,12.5v0A3.5,3.5,0,0,1,4.5,9Z" transform="translate(13 25) rotate(180)" fill="#7ed3dd"></path></g></svg>