<svg xmlns="http://www.w3.org/2000/svg" height="48" width="48" viewBox="0 0 48 48"><title>hanging toys</title><g class="nc-icon-wrapper"><path d="M11,18a1,1,0,0,1-1-1V10.805a1,1,0,0,1,2,0V17A1,1,0,0,1,11,18Z" fill="#7d5731"></path><path d="M24,26a1,1,0,0,1-1-1V2a1,1,0,0,1,2,0V25A1,1,0,0,1,24,26Z" fill="#7d5731"></path><path d="M37,18a1,1,0,0,1-1-1V10.805a1,1,0,0,1,2,0V17A1,1,0,0,1,37,18Z" fill="#7d5731"></path><path d="M32.951,34.62a1,1,0,0,0-.807-.68l-5.008-.727L24.9,28.675a1.039,1.039,0,0,0-1.792,0l-2.24,4.538-5.008.727a1,1,0,0,0-.554,1.706l3.624,3.532-.856,4.987a1,1,0,0,0,1.451,1.054L24,42.865l4.479,2.354a1,1,0,0,0,1.451-1.054l-.856-4.987L32.7,35.646A1,1,0,0,0,32.951,34.62Z" fill="#ffd764"></path><path d="M44,15a2,2,0,0,1-.741-.143C43.161,14.818,33.479,11,24,11S4.839,14.818,4.742,14.857a2,2,0,0,1-1.485-3.714C3.68,10.974,13.732,7,24,7s20.32,3.974,20.743,4.143A2,2,0,0,1,44,15Z" fill="#bf8c5a"></path><path d="M16.455,27.442a1,1,0,0,0-.774-.479,3.978,3.978,0,0,1-3.361-5.53,1,1,0,0,0-.841-1.39l-.1-.012A2.794,2.794,0,0,0,11,20a6,6,0,1,0,5.52,8.353A1,1,0,0,0,16.455,27.442Z" fill="#857cf8"></path><circle cx="37" cy="25" r="5" fill="#fa9856"></circle></g></svg>