<svg xmlns="http://www.w3.org/2000/svg" height="48" width="48" viewBox="0 0 48 48"><title>pram</title><g class="nc-icon-wrapper"><path d="M15,35a6,6,0,1,0,6,6A6,6,0,0,0,15,35Zm0,9a3,3,0,1,1,3-3A3,3,0,0,1,15,44Z" fill="#363636"></path><path d="M15,42a.948.948,0,0,1-.2-.02A1,1,0,0,1,14.02,40.8l2-10a1,1,0,0,1,1.96.392l-2,10A1,1,0,0,1,15,42Z" fill="#aeaeae"></path><path d="M29,41a6,6,0,1,0,6-6A6,6,0,0,0,29,41Zm3,0a3,3,0,1,1,3,3A3,3,0,0,1,32,41Z" fill="#363636"></path><path d="M35,42a.948.948,0,0,0,.2-.02A1,1,0,0,0,35.98,40.8l-2-10a1,1,0,1,0-1.96.392l2,10A1,1,0,0,0,35,42Z" fill="#aeaeae"></path><path d="M30,1a1,1,0,0,0-1,1V18H47A17.019,17.019,0,0,0,30,1Z" fill="#645aed"></path><path d="M5,10v8H7V10A5.006,5.006,0,0,0,2,5,1,1,0,0,0,2,7,3,3,0,0,1,5,10Z" fill="#444"></path><path d="M46.97,22l-.021-4H4a1,1,0,0,0-1,1v3Z" fill="#4a40ce"></path><rect x="5" y="10" width="2" height="8" fill="#aeaeae"></rect><path d="M31,1.051V18h2V1.281A16.853,16.853,0,0,0,31,1.051Z" fill="#ada8fa"></path><path d="M3,22v1a9.01,9.01,0,0,0,9,9H38a9.01,9.01,0,0,0,9-9V22Z" fill="#645aed"></path></g></svg>