<svg xmlns="http://www.w3.org/2000/svg" height="48" width="48" viewBox="0 0 48 48"><title>pregnant woman</title><g class="nc-icon-wrapper"><path d="M34,39H15a1,1,0,0,1-.98-1.2l4.838-24.2A2.007,2.007,0,0,1,20.82,12h5.421a2.007,2.007,0,0,1,1.927,1.462l1.391,4.965a7.989,7.989,0,0,1,3.561,12.72l1.843,6.583A1,1,0,0,1,34,39Z" fill="#ffd764"></path><path d="M23,10a5,5,0,1,1,5-5A5.006,5.006,0,0,1,23,10Z" fill="#5a7a84"></path><path d="M23.1,48H22a2,2,0,0,1-2-2V39h6l-.912,7.25A2,2,0,0,1,23.1,48Z" fill="#335262"></path><path d="M23,28.5a2.489,2.489,0,0,1-1.582-.565l-5.5-4.5a2.5,2.5,0,0,1-.715-2.919l3-7a2.5,2.5,0,1,1,4.6,1.968l-2.259,5.272,4.044,3.309A2.5,2.5,0,0,1,23,28.5Z" fill="#335262"></path></g></svg>