<svg width="1014" height="720" viewBox="0 0 1014 720" fill="none" xmlns="http://www.w3.org/2000/svg">
<path fill-rule="evenodd" clip-rule="evenodd" d="M1011.95 649.033H945.831C944.726 649.033 943.831 648.137 943.831 647.033C943.831 645.929 944.726 645.033 945.831 645.033H1011.95C1013.05 645.033 1013.95 645.929 1013.95 647.033C1013.95 648.137 1013.05 649.033 1011.95 649.033Z" fill="#4D0070"/>
<path fill-rule="evenodd" clip-rule="evenodd" d="M918.474 649.033H107.398C106.293 649.033 105.398 648.137 105.398 647.033C105.398 645.929 106.293 645.033 107.398 645.033H918.474C919.578 645.033 920.474 645.929 920.474 647.033C920.474 648.137 919.578 649.033 918.474 649.033Z" fill="#4D0070"/>
<path fill-rule="evenodd" clip-rule="evenodd" d="M84.4194 649.033H23.8154C22.7114 649.033 21.8154 648.137 21.8154 647.033C21.8154 645.929 22.7114 645.033 23.8154 645.033H84.4194C85.5234 645.033 86.4194 645.929 86.4194 647.033C86.4194 648.137 85.5234 649.033 84.4194 649.033Z" fill="#4D0070"/>
<path fill-rule="evenodd" clip-rule="evenodd" d="M504.174 719.947H433.482C432.377 719.947 431.482 719.051 431.482 717.947C431.482 716.843 432.377 715.947 433.482 715.947H504.174C505.278 715.947 506.174 716.843 506.174 717.947C506.174 719.051 505.278 719.947 504.174 719.947Z" fill="#4D0070"/>
<path fill-rule="evenodd" clip-rule="evenodd" d="M368.453 719.947H251.555C250.45 719.947 249.555 719.051 249.555 717.947C249.555 716.843 250.45 715.947 251.555 715.947H368.453C369.557 715.947 370.453 716.843 370.453 717.947C370.453 719.051 369.557 719.947 368.453 719.947Z" fill="#4D0070"/>
<path fill-rule="evenodd" clip-rule="evenodd" d="M710.801 719.947H626.401C625.296 719.947 624.401 719.051 624.401 717.947C624.401 716.843 625.296 715.947 626.401 715.947H710.801C711.905 715.947 712.801 716.843 712.801 717.947C712.801 719.051 711.905 719.947 710.801 719.947Z" fill="#4D0070"/>
<path fill-rule="evenodd" clip-rule="evenodd" d="M504.174 457.602C621.785 463.392 596.538 349.008 585.049 318.915C573.56 288.82 603.995 246.283 583.315 208.75C538.313 127.08 418.836 196.582 418.836 196.582C418.836 196.582 369.218 195.552 368.452 269.85C367.687 344.148 382.836 332.157 372.113 386.665C365.415 420.711 381.348 457.257 441.184 457.602H504.174Z" fill="#FF9F80"/>
<path fill-rule="evenodd" clip-rule="evenodd" d="M504.174 457.602C621.785 463.392 596.538 349.008 585.049 318.915C573.56 288.82 603.995 246.283 583.315 208.75C538.313 127.08 418.836 196.582 418.836 196.582C418.836 196.582 369.218 195.552 368.452 269.85C367.687 344.148 382.836 332.157 372.113 386.665C365.415 420.711 381.348 457.257 441.184 457.602H504.174Z" fill="white" fill-opacity="0.3" style="mix-blend-mode:soft-light"/>
<path fill-rule="evenodd" clip-rule="evenodd" d="M504.174 457.602C621.785 463.392 596.538 349.008 585.049 318.915C573.56 288.82 603.995 246.283 583.315 208.75C538.313 127.08 418.836 196.582 418.836 196.582C418.836 196.582 369.218 195.552 368.452 269.85C367.687 344.148 382.836 332.157 372.113 386.665C365.415 420.711 381.348 457.257 441.184 457.602H504.174Z" fill="white" fill-opacity="0.3" style="mix-blend-mode:soft-light"/>
<path fill-rule="evenodd" clip-rule="evenodd" d="M418.756 198.582C417.888 198.582 402.814 198.784 389.896 211.354C377.268 223.644 370.726 243.332 370.452 269.871C370.106 303.485 372.998 319.133 375.322 331.706C378.135 346.921 379.993 356.972 374.075 387.052C370.471 405.373 373.902 422.088 383.737 434.116C395.107 448.021 414.975 455.451 441.195 455.603H504.174C504.207 455.603 504.239 455.603 504.273 455.604C539.721 457.353 565.009 448.163 579.42 428.298C590.032 413.672 594.695 393.644 593.279 368.771C592.16 349.11 587.329 330.494 583.181 319.628C577.914 305.834 581.044 289.885 584.358 273C588.499 251.896 592.781 230.076 581.563 209.716C571.486 191.429 556.707 179.478 537.636 174.193C486.546 160.036 420.503 197.928 419.842 198.311C419.524 198.496 419.17 198.587 418.794 198.583C418.791 198.582 418.777 198.582 418.756 198.582ZM512.584 459.814C509.826 459.814 507.011 459.744 504.126 459.603H441.184C413.721 459.444 392.789 451.507 380.641 436.648C370.037 423.68 366.313 405.792 370.152 386.28C375.921 356.948 374.118 347.195 371.389 332.434C369.033 319.69 366.102 303.831 366.452 269.83C366.737 242.136 373.711 221.474 387.178 208.419C400.322 195.676 415.169 194.655 418.301 194.586C421.195 192.956 437.12 184.218 458.161 177.075C497.103 163.855 523.447 166.112 538.694 170.336C558.847 175.916 574.448 188.517 585.067 207.786C596.986 229.419 592.362 252.981 588.282 273.77C585.083 290.076 582.06 305.478 586.917 318.202C591.173 329.349 596.128 348.427 597.273 368.545C598.742 394.361 593.825 415.255 582.658 430.647C568.603 450.02 545.051 459.813 512.584 459.814Z" fill="#4D0070"/>
<path fill-rule="evenodd" clip-rule="evenodd" d="M405.674 451.131C405.43 451.131 405.186 451.042 404.992 450.863C387.76 434.821 389.204 409.56 390.733 382.815C391.941 361.692 393.19 339.851 386.23 319.235C377.198 292.484 381.046 269.901 381.086 269.676C381.183 269.133 381.689 268.762 382.245 268.866C382.788 268.962 383.152 269.482 383.055 270.026C383.016 270.245 379.265 292.353 388.124 318.595C395.208 339.577 393.948 361.616 392.73 382.929C391.163 410.331 389.81 433.997 406.356 449.399C406.76 449.776 406.782 450.408 406.406 450.813C406.209 451.024 405.942 451.131 405.674 451.131Z" fill="#4D0070"/>
<path fill-rule="evenodd" clip-rule="evenodd" d="M489.406 230.299C445.072 230.299 427.246 216.441 426.381 215.745C425.951 215.4 425.883 214.771 426.228 214.341C426.574 213.91 427.203 213.842 427.634 214.186C427.879 214.383 452.915 233.747 516.382 226.738C516.934 226.681 517.425 227.074 517.485 227.623C517.546 228.172 517.15 228.666 516.6 228.727C506.601 229.831 497.555 230.299 489.406 230.299Z" fill="#4D0070"/>
<path fill-rule="evenodd" clip-rule="evenodd" d="M391.217 230.281C391.131 230.281 391.044 230.27 390.958 230.247C390.424 230.104 390.108 229.556 390.25 229.023C390.298 228.843 395.343 210.968 419.71 207.339C420.261 207.266 420.765 207.635 420.847 208.18C420.928 208.727 420.551 209.236 420.005 209.317C396.921 212.755 392.227 229.372 392.182 229.539C392.063 229.986 391.658 230.281 391.217 230.281Z" fill="white"/>
<path fill-rule="evenodd" clip-rule="evenodd" d="M542.614 212.902C542.526 212.902 542.437 212.89 542.349 212.867C507.784 203.416 481.342 201.699 465.221 201.922C447.774 202.164 438.379 204.672 438.286 204.697C437.752 204.839 437.204 204.528 437.057 203.996C436.913 203.463 437.226 202.913 437.759 202.767C438.144 202.662 447.422 200.177 465.089 199.923C481.337 199.692 508.03 201.411 542.877 210.937C543.41 211.083 543.723 211.633 543.578 212.166C543.456 212.61 543.053 212.902 542.614 212.902Z" fill="#4D0070"/>
<path fill-rule="evenodd" clip-rule="evenodd" d="M550.417 275.133C550.4 275.133 550.384 275.133 550.366 275.132C549.814 275.105 549.39 274.635 549.417 274.083C551.235 237.414 530.956 230.299 530.751 230.232C530.227 230.058 529.941 229.493 530.114 228.968C530.287 228.444 530.849 228.157 531.378 228.331C532.273 228.627 553.308 236.006 551.415 274.183C551.389 274.717 550.946 275.133 550.417 275.133Z" fill="#4D0070"/>
<path fill-rule="evenodd" clip-rule="evenodd" d="M575.603 270.85H575.579C575.027 270.836 574.589 270.377 574.603 269.826C574.79 262.212 574.5 254.974 573.745 248.311C573.682 247.763 574.077 247.267 574.625 247.205C575.174 247.137 575.669 247.538 575.731 248.086C576.498 254.839 576.791 262.17 576.603 269.874C576.589 270.418 576.144 270.85 575.603 270.85Z" fill="#4D0070"/>
<path fill-rule="evenodd" clip-rule="evenodd" d="M573.416 240.403C572.944 240.403 572.525 240.069 572.435 239.589C569.609 224.662 562.37 204.566 543.926 193.603C532.887 187.042 522.909 186.86 522.81 186.859C522.258 186.853 521.814 186.401 521.82 185.849C521.825 185.3 522.271 184.859 522.819 184.859H522.828C523.253 184.863 533.362 185.031 544.854 191.828C564.005 203.157 571.491 223.851 574.399 239.217C574.502 239.759 574.145 240.283 573.603 240.385C573.54 240.397 573.478 240.403 573.416 240.403Z" fill="#4D0070"/>
<path fill-rule="evenodd" clip-rule="evenodd" d="M396.376 277.436C395.877 277.436 395.445 277.063 395.384 276.555C390.77 238.22 409.616 227.418 410.421 226.977C410.905 226.71 411.513 226.889 411.778 227.373C412.043 227.857 411.867 228.463 411.385 228.73C411.199 228.832 392.93 239.427 397.37 276.317C397.436 276.865 397.045 277.363 396.496 277.429C396.456 277.434 396.416 277.436 396.376 277.436Z" fill="#4D0070"/>
<path fill-rule="evenodd" clip-rule="evenodd" d="M573.049 414.306C572.826 414.306 572.603 414.232 572.417 414.08C571.989 413.731 571.926 413.1 572.276 412.673C578.523 405.036 581.215 392.998 580.279 376.893C580.247 376.342 580.668 375.869 581.22 375.837C581.753 375.812 582.244 376.226 582.276 376.778C583.255 393.633 580.49 405.789 573.824 413.939C573.626 414.181 573.339 414.306 573.049 414.306Z" fill="#4D0070"/>
<path fill-rule="evenodd" clip-rule="evenodd" d="M580.311 367.773C579.816 367.773 579.386 367.406 579.321 366.902C577.612 353.756 574.335 340.657 571.704 330.131L571.569 329.59C565.447 305.1 572.528 280.42 572.6 280.174C572.755 279.643 573.32 279.342 573.841 279.496C574.372 279.651 574.675 280.207 574.52 280.737C574.449 280.978 567.522 305.156 573.508 329.106L573.644 329.646C576.289 340.221 579.58 353.383 581.303 366.644C581.374 367.192 580.989 367.694 580.441 367.764C580.397 367.77 580.354 367.773 580.311 367.773Z" fill="#4D0070"/>
<path fill-rule="evenodd" clip-rule="evenodd" d="M549.24 401.485C549.035 401.485 548.829 401.423 548.651 401.293C548.205 400.967 548.107 400.342 548.432 399.896C548.59 399.678 564.109 377.878 553.044 350.76C546.509 334.745 548.395 316.357 551.13 303.753C554.081 290.14 558.636 280.138 558.681 280.039C558.912 279.536 559.506 279.318 560.008 279.547C560.51 279.777 560.729 280.371 560.5 280.873C560.455 280.97 555.977 290.81 553.074 304.22C550.408 316.536 548.559 334.476 554.895 350.005C566.394 378.183 550.213 400.849 550.048 401.075C549.852 401.342 549.548 401.485 549.24 401.485Z" fill="#4D0070"/>
<path fill-rule="evenodd" clip-rule="evenodd" d="M416.284 394.391C415.893 394.391 415.521 394.16 415.361 393.776C415.016 392.95 406.955 373.331 410.023 354.652C415.175 323.292 403.763 305.235 403.647 305.056C403.346 304.592 403.478 303.973 403.942 303.673C404.406 303.371 405.025 303.503 405.325 303.968C405.815 304.724 417.273 322.86 411.996 354.976C409.02 373.095 417.125 392.809 417.207 393.006C417.42 393.516 417.179 394.101 416.669 394.314C416.543 394.367 416.413 394.391 416.284 394.391Z" fill="#4D0070"/>
<path fill-rule="evenodd" clip-rule="evenodd" d="M438.287 393.743C438.214 393.743 438.14 393.734 438.065 393.718C437.527 393.596 437.189 393.06 437.31 392.522C437.33 392.437 439.173 383.896 434.759 372.736C429.956 360.593 437.067 354.316 437.372 354.055C437.791 353.697 438.422 353.744 438.782 354.164C439.141 354.582 439.093 355.212 438.676 355.571C438.416 355.798 432.36 361.234 436.618 372C441.274 383.772 439.346 392.596 439.261 392.966C439.155 393.429 438.743 393.743 438.287 393.743Z" fill="#4D0070"/>
<path fill-rule="evenodd" clip-rule="evenodd" d="M522.821 387.666C522.76 387.666 522.698 387.66 522.636 387.648C522.093 387.547 521.736 387.024 521.837 386.482C521.859 386.366 523.93 374.808 518.628 364.531C512.859 353.351 518.301 346.53 518.536 346.245C518.887 345.819 519.517 345.757 519.944 346.108C520.369 346.459 520.431 347.087 520.083 347.514C519.877 347.769 515.272 353.666 520.405 363.613C526.031 374.518 523.896 386.353 523.802 386.851C523.713 387.331 523.293 387.666 522.821 387.666Z" fill="#4D0070"/>
<path fill-rule="evenodd" clip-rule="evenodd" d="M571.056 467.694C557.416 448.424 545.447 430.954 545.447 430.954C545.447 430.954 545.766 442.114 545.947 460.484C546.027 468.154 546.086 477.094 546.086 486.994L546.077 509.674L546.046 616.194L546.036 647.034H408.987V435.054C408.987 435.054 394.367 448.484 378.216 467.974L357.706 453.184C357.746 453.124 357.786 453.064 357.836 453.004C360.186 449.784 362.536 446.574 364.856 443.394C395.086 402.014 431.016 388.814 462.746 388.174V388.234C462.836 388.274 463.016 388.324 463.266 388.394C463.487 388.464 463.766 388.544 464.106 388.634C468.346 389.834 481.176 392.744 491.987 388.094C492.926 387.694 493.846 387.234 494.746 386.704C503.206 388.074 549.24 386.704 580.316 437.434C583.747 443.035 587.466 448.034 590.746 452.924L571.056 467.694Z" fill="white"/>
<path fill-rule="evenodd" clip-rule="evenodd" d="M410.987 645.034H544.038L544.087 486.993C544.087 478.286 544.04 469.374 543.947 460.505C543.768 442.367 543.451 431.123 543.448 431.012C543.423 430.124 543.984 429.327 544.828 429.053C545.672 428.778 546.595 429.092 547.096 429.823C547.213 429.993 558.518 446.486 571.502 464.86L588.021 452.469C587.244 451.332 586.447 450.186 585.639 449.026C583.313 445.683 580.907 442.227 578.611 438.479C551.232 393.785 512.761 390.373 498.279 389.089C497.032 388.977 495.985 388.885 495.143 388.779C494.381 389.2 493.585 389.588 492.771 389.934C481.206 394.907 467.49 391.669 463.562 390.559C463.216 390.467 462.91 390.379 462.667 390.303C462.52 390.262 462.387 390.222 462.275 390.185C424.397 391.108 392.165 409.405 366.471 444.574L360.508 452.738L377.874 465.262C393.455 446.657 407.491 433.714 407.634 433.582C408.219 433.044 409.066 432.906 409.792 433.223C410.518 433.543 410.987 434.261 410.987 435.055V645.034ZM546.037 649.034H408.987C407.883 649.034 406.987 648.138 406.987 647.034V439.725C401.76 444.81 391.09 455.574 379.757 469.251C379.087 470.06 377.9 470.214 377.047 469.597L356.537 454.806C355.667 454.179 355.447 452.976 356.039 452.081C356.104 451.982 356.171 451.887 356.248 451.789L363.24 442.216C389.452 406.337 423.846 386.959 462.707 386.175C463.092 386.161 463.457 386.268 463.777 386.461C464.067 386.55 464.318 386.621 464.623 386.702C468.258 387.731 480.838 390.714 491.197 386.258C492.081 385.881 492.931 385.452 493.732 384.98C494.133 384.744 494.61 384.657 495.066 384.729C495.859 384.858 497.083 384.967 498.633 385.104C512.225 386.309 553.591 389.978 582.021 436.389C584.257 440.038 586.629 443.446 588.923 446.742C590.116 448.457 591.287 450.14 592.408 451.81C593.001 452.694 592.798 453.887 591.947 454.524L572.257 469.294C571.824 469.618 571.274 469.753 570.747 469.67C570.213 469.587 569.736 469.291 569.424 468.849C560.5 456.242 552.221 444.304 547.604 437.615C547.711 442.733 547.849 450.579 547.947 460.465C548.04 469.346 548.087 478.272 548.087 486.994L548.037 647.035C548.037 648.138 547.141 649.034 546.037 649.034Z" fill="#4D0070"/>
<path fill-rule="evenodd" clip-rule="evenodd" d="M412.409 414.304C412.164 414.304 411.918 414.214 411.725 414.033C411.323 413.657 411.302 413.025 411.679 412.622C411.97 412.311 418.976 404.977 434.18 402.91C434.731 402.846 435.232 403.219 435.306 403.767C435.381 404.315 434.997 404.819 434.45 404.893C420.002 406.856 413.205 413.918 413.138 413.99C412.941 414.199 412.676 414.304 412.409 414.304Z" fill="#4D0070"/>
<path fill-rule="evenodd" clip-rule="evenodd" d="M504.175 472.072C503.888 472.072 503.604 471.95 503.405 471.713C491.926 457.935 473.79 443.64 473.609 443.497C473.174 443.156 473.098 442.527 473.44 442.093C473.78 441.659 474.409 441.581 474.843 441.925C475.027 442.068 493.325 456.491 504.943 470.431C505.296 470.856 505.238 471.487 504.815 471.841C504.627 471.996 504.401 472.072 504.175 472.072Z" fill="#4D0070"/>
<path fill-rule="evenodd" clip-rule="evenodd" d="M500.473 453.924C500.177 453.924 499.885 453.794 499.688 453.545C495.982 448.862 492.848 443.438 492.716 443.209C492.441 442.731 492.606 442.119 493.084 441.844C493.563 441.568 494.174 441.733 494.45 442.211C494.482 442.266 497.644 447.739 501.256 452.303C501.599 452.737 501.526 453.365 501.093 453.708C500.909 453.854 500.69 453.924 500.473 453.924Z" fill="#4D0070"/>
<path fill-rule="evenodd" clip-rule="evenodd" d="M518.963 240.827C535.209 237.391 550.472 249.862 550.434 266.468L550.416 274.133C550.336 282.602 549.186 290.093 547.256 297.583C547.256 297.602 547.245 297.613 547.235 297.633C546.716 299.123 546.155 300.583 545.556 302.033C545.456 302.272 545.356 302.513 545.256 302.753C545.035 303.243 544.806 303.743 544.575 304.232L542.606 308.413C535.376 322.533 524.506 334.062 511.405 341.432C506.165 344.392 500.566 346.673 494.705 348.192C489.186 349.623 483.455 350.383 477.556 350.383C476.796 350.383 476.035 350.373 475.275 350.352C471.966 350.232 467.245 349.272 462.735 348.003C458.835 346.892 455.085 345.562 452.556 344.323C451.186 343.652 449.865 342.963 448.575 342.243C437.995 336.352 430.125 328.863 424.296 320.713C420.686 315.682 417.856 310.392 415.655 305.073C412.266 305.953 408.346 305.803 404.485 304.513C403.025 304.033 401.566 303.383 400.155 302.573C399.705 302.312 399.266 302.043 398.865 301.772C397.976 301.182 397.146 300.522 396.396 299.793V299.783C392.056 295.583 390.155 289.263 391.806 283.323C392.825 279.663 395.186 276.033 400.335 274.543C402.825 273.803 405.556 273.463 408.556 274.133C408.556 268.348 407.777 252.338 424.683 240.207C425.769 239.428 427.155 239.196 428.43 239.598C437.77 242.549 479.005 254.366 509.431 243.561C512.881 242.337 516.051 241.443 518.963 240.827Z" fill="#FF9C94"/>
<path fill-rule="evenodd" clip-rule="evenodd" d="M518.963 240.827C535.209 237.391 550.472 249.862 550.434 266.468L550.416 274.133C550.336 282.602 549.186 290.093 547.256 297.583C547.256 297.602 547.245 297.613 547.235 297.633C546.716 299.123 546.155 300.583 545.556 302.033C545.456 302.272 545.356 302.513 545.256 302.753C545.035 303.243 544.806 303.743 544.575 304.232L542.606 308.413C535.376 322.533 524.506 334.062 511.405 341.432C506.165 344.392 500.566 346.673 494.705 348.192C489.186 349.623 483.455 350.383 477.556 350.383C476.796 350.383 476.035 350.373 475.275 350.352C471.966 350.232 467.245 349.272 462.735 348.003C458.835 346.892 455.085 345.562 452.556 344.323C451.186 343.652 449.865 342.963 448.575 342.243C437.995 336.352 430.125 328.863 424.296 320.713C420.686 315.682 417.856 310.392 415.655 305.073C412.266 305.953 408.346 305.803 404.485 304.513C403.025 304.033 401.566 303.383 400.155 302.573C399.705 302.312 399.266 302.043 398.865 301.772C397.976 301.182 397.146 300.522 396.396 299.793V299.783C392.056 295.583 390.155 289.263 391.806 283.323C392.825 279.663 395.186 276.033 400.335 274.543C402.825 273.803 405.556 273.463 408.556 274.133C408.556 268.348 407.777 252.338 424.683 240.207C425.769 239.428 427.155 239.196 428.43 239.598C437.77 242.549 479.005 254.366 509.431 243.561C512.881 242.337 516.051 241.443 518.963 240.827Z" fill="white" fill-opacity="0.3" style="mix-blend-mode:soft-light"/>
<path fill-rule="evenodd" clip-rule="evenodd" d="M415.657 303.073C416.449 303.073 417.189 303.547 417.505 304.308C419.778 309.805 422.61 314.932 425.922 319.547C432.068 328.141 440.017 335.188 449.549 340.496C450.81 341.199 452.082 341.863 453.436 342.527C455.755 343.663 459.344 344.958 463.284 346.079C468.042 347.419 472.441 348.248 475.348 348.353C476.072 348.373 476.814 348.383 477.556 348.383C483.159 348.383 488.761 347.667 494.204 346.257C499.841 344.795 505.298 342.586 510.423 339.691C523.217 332.493 533.729 321.363 540.826 307.502L542.766 303.38C542.992 302.901 543.217 302.412 543.433 301.931L543.71 301.264C544.318 299.793 544.854 298.388 545.347 296.974C545.348 296.972 545.348 296.97 545.349 296.969C547.369 289.096 548.344 281.831 548.417 274.114L548.434 266.463C548.451 259.133 545.198 252.277 539.508 247.654C533.842 243.051 526.499 241.273 519.378 242.784C516.46 243.401 513.338 244.297 510.1 245.446C496.885 250.14 480.287 251.243 460.767 248.721C445.358 246.732 432.598 243.012 427.828 241.506C427.168 241.296 426.427 241.418 425.849 241.832C410.452 252.881 410.523 267.252 410.553 273.389L410.556 274.133C410.556 274.74 410.281 275.314 409.807 275.693C409.334 276.073 408.715 276.218 408.121 276.085C405.802 275.566 403.51 275.687 400.906 276.46C397.16 277.544 394.818 279.963 393.733 283.86C392.306 288.994 393.86 294.545 397.787 298.345C397.826 298.384 397.863 298.423 397.899 298.464C398.516 299.051 399.214 299.602 399.971 300.105C400.349 300.361 400.749 300.605 401.158 300.843C402.431 301.573 403.763 302.17 405.11 302.612C408.516 303.75 412.08 303.936 415.153 303.137C415.321 303.094 415.49 303.073 415.657 303.073ZM477.556 352.383C476.779 352.383 476 352.373 475.222 352.351C471.992 352.234 467.251 351.351 462.194 349.927C457.969 348.725 454.236 347.373 451.677 346.119C450.258 345.425 448.925 344.727 447.601 343.989C437.551 338.393 429.162 330.953 422.67 321.876C419.49 317.446 416.731 312.571 414.458 307.365C411.076 307.912 407.372 307.586 403.852 306.409C402.258 305.886 400.676 305.177 399.16 304.307C398.663 304.019 398.183 303.724 397.746 303.429C396.752 302.77 395.824 302.026 395.002 301.226C394.961 301.186 394.922 301.145 394.885 301.102C389.992 296.284 388.075 289.283 389.88 282.788C391.327 277.593 394.75 274.077 399.78 272.622C402.126 271.924 404.362 271.658 406.553 271.819C406.611 264.751 407.748 249.898 423.517 238.582C425.112 237.436 427.175 237.105 429.033 237.691C437.071 240.23 478.691 252.353 508.762 241.677C512.166 240.469 515.459 239.524 518.55 238.87C526.867 237.113 535.424 239.181 542.03 244.55C548.662 249.938 552.454 257.928 552.434 266.472L552.417 274.137C552.341 282.239 551.316 289.843 549.193 298.082H549.192C549.167 298.18 549.135 298.277 549.096 298.371C548.587 299.83 548.032 301.279 547.405 302.798L547.104 303.518C546.855 304.074 546.621 304.585 546.386 305.085L544.416 309.265C536.93 323.887 525.865 335.593 512.386 343.176C506.963 346.239 501.181 348.579 495.208 350.128C489.436 351.624 483.498 352.383 477.556 352.383Z" fill="#4D0070"/>
<path fill-rule="evenodd" clip-rule="evenodd" d="M414.295 278.436C413.858 278.436 413.42 278.294 413.052 278.002C412.988 277.953 410.565 276.09 407.644 275.974C406.539 275.93 405.681 275 405.725 273.897C405.769 272.793 406.715 271.933 407.802 271.978C412.089 272.148 415.405 274.763 415.545 274.873C416.407 275.564 416.548 276.822 415.858 277.685C415.463 278.179 414.882 278.436 414.295 278.436Z" fill="#4D0070"/>
<path fill-rule="evenodd" clip-rule="evenodd" d="M408.811 298.222C407.197 298.222 405.551 297.79 404.072 296.952C401.895 295.723 400.302 293.737 399.705 291.504C399.202 289.63 399.441 287.723 400.377 286.135C401.794 283.734 404.605 282.395 407.712 282.631C408.263 282.673 408.674 283.155 408.632 283.705C408.59 284.255 408.11 284.665 407.558 284.625C405.218 284.442 403.125 285.412 402.1 287.152C401.438 288.273 401.274 289.635 401.636 290.987C402.096 292.703 403.343 294.243 405.057 295.211C406.811 296.206 408.84 296.484 410.628 295.974C411.152 295.822 411.712 296.13 411.864 296.662C412.015 297.194 411.707 297.746 411.175 297.898C410.412 298.115 409.615 298.222 408.811 298.222Z" fill="#4D0070"/>
<path fill-rule="evenodd" clip-rule="evenodd" d="M441.188 265.477C440.44 265.477 439.721 265.056 439.379 264.335C438.906 263.339 439.327 262.148 440.323 261.673C440.711 261.487 450.003 257.145 462.604 258.691C463.701 258.827 464.48 259.825 464.345 260.92C464.21 262.018 463.205 262.792 462.116 262.662C450.719 261.256 442.127 265.245 442.042 265.285C441.766 265.415 441.475 265.477 441.188 265.477Z" fill="#4D0070"/>
<path fill-rule="evenodd" clip-rule="evenodd" d="M529.657 266.193C529.345 266.193 529.029 266.121 528.734 265.966C528.639 265.918 522.169 262.676 508.957 262.676C507.852 262.676 506.957 261.781 506.957 260.676C506.957 259.572 507.852 258.676 508.957 258.676C523.306 258.676 530.3 262.27 530.591 262.423C531.568 262.937 531.943 264.147 531.428 265.125C531.071 265.804 530.376 266.193 529.657 266.193Z" fill="#4D0070"/>
<g opacity="0.4">
<path fill-rule="evenodd" clip-rule="evenodd" d="M462.36 293.801C462.36 297.349 456.912 300.224 450.191 300.224C443.47 300.224 438.022 297.349 438.022 293.801C438.022 290.254 443.47 287.379 450.191 287.379C456.912 287.379 462.36 290.254 462.36 293.801Z" fill="#FF627F"/>
<path fill-rule="evenodd" clip-rule="evenodd" d="M535.146 293.801C535.146 297.349 529.698 300.224 522.977 300.224C516.256 300.224 510.808 297.349 510.808 293.801C510.808 290.254 516.256 287.379 522.977 287.379C529.698 287.379 535.146 290.254 535.146 293.801Z" fill="#FF627F"/>
</g>
<path fill-rule="evenodd" clip-rule="evenodd" d="M486.493 297.13C482.779 297.13 479.748 295.391 478.202 293.912C477.404 293.149 477.376 291.883 478.139 291.084C478.901 290.289 480.162 290.26 480.96 291.015C481.489 291.507 486.249 295.638 492.356 290.888C493.224 290.212 494.483 290.366 495.163 291.239C495.841 292.111 495.683 293.367 494.811 294.046C491.892 296.316 489.033 297.13 486.493 297.13Z" fill="#4D0070"/>
<path fill-rule="evenodd" clip-rule="evenodd" d="M456.677 284.506C461.889 284.506 461.898 276.406 456.677 276.406C451.465 276.406 451.456 284.506 456.677 284.506Z" fill="#4D0070"/>
<path fill-rule="evenodd" clip-rule="evenodd" d="M516.491 284.506C521.703 284.506 521.712 276.406 516.491 276.406C511.279 276.406 511.27 284.506 516.491 284.506Z" fill="#4D0070"/>
<path fill-rule="evenodd" clip-rule="evenodd" d="M494.836 386.654C494.806 386.675 494.776 386.694 494.746 386.704C493.846 387.234 492.926 387.694 491.986 388.094C481.176 392.744 468.346 389.834 464.106 388.634C463.766 388.544 463.486 388.464 463.266 388.394C463.016 388.324 462.836 388.274 462.746 388.234V348.014C467.256 349.284 471.976 350.244 475.286 350.354C476.046 350.384 476.806 350.394 477.565 350.394C483.466 350.394 489.196 349.634 494.716 348.194V386.654H494.836Z" fill="#FF9C94"/>
<path fill-rule="evenodd" clip-rule="evenodd" d="M494.836 386.654C494.806 386.675 494.776 386.694 494.746 386.704C493.846 387.234 492.926 387.694 491.986 388.094C481.176 392.744 468.346 389.834 464.106 388.634C463.766 388.544 463.486 388.464 463.266 388.394C463.016 388.324 462.836 388.274 462.746 388.234V348.014C467.256 349.284 471.976 350.244 475.286 350.354C476.046 350.384 476.806 350.394 477.565 350.394C483.466 350.394 489.196 349.634 494.716 348.194V386.654H494.836Z" fill="white" fill-opacity="0.3" style="mix-blend-mode:soft-light"/>
<path fill-rule="evenodd" clip-rule="evenodd" d="M464.747 386.737C468.537 387.795 480.948 390.663 491.197 386.258C491.716 386.036 492.224 385.797 492.717 385.542V350.734C486.98 352.008 481.098 352.59 475.207 352.352C472.559 352.264 468.837 351.642 464.747 350.617V386.737ZM478.378 392.624C471.658 392.624 465.891 391.217 463.562 390.559C463.217 390.466 462.91 390.379 462.667 390.302C462.326 390.208 462.067 390.121 461.933 390.061C461.212 389.74 460.747 389.024 460.747 388.234V348.014C460.747 347.388 461.04 346.799 461.54 346.42C462.039 346.042 462.686 345.919 463.289 346.09C468.062 347.433 472.46 348.258 475.353 348.355C476.1 348.385 476.833 348.394 477.566 348.394C483.182 348.394 488.782 347.675 494.212 346.258C494.809 346.104 495.449 346.232 495.939 346.611C496.43 346.99 496.717 347.575 496.717 348.194V385.971C496.728 386.003 496.739 386.035 496.749 386.067C497.007 386.907 496.685 387.817 495.959 388.31C495.91 388.342 495.812 388.409 495.676 388.477C494.753 389.016 493.776 389.507 492.771 389.934C488.061 391.96 482.995 392.624 478.378 392.624Z" fill="#4D0070"/>
<path fill-rule="evenodd" clip-rule="evenodd" d="M478.086 373.366C475.815 373.366 473.144 372.544 470.23 370.09C469.808 369.734 469.753 369.103 470.109 368.68C470.464 368.261 471.097 368.204 471.519 368.56C478.768 374.667 483.928 368.919 484.144 368.67C484.507 368.255 485.137 368.21 485.554 368.571C485.97 368.931 486.017 369.56 485.657 369.977C485.613 370.028 482.661 373.366 478.086 373.366Z" fill="#4D0070"/>
<path fill-rule="evenodd" clip-rule="evenodd" d="M472.652 305.491C472.886 308.294 473.865 310.873 475.374 313.003C477.922 316.591 481.988 318.915 486.564 318.915C491.141 318.915 495.208 316.591 497.756 313.003C499.264 310.873 500.243 308.294 500.466 305.491C500.528 304.788 500.039 304.186 499.397 304.186H473.733C473.09 304.186 472.59 304.788 472.652 305.491Z" fill="#FF9C94"/>
<path fill-rule="evenodd" clip-rule="evenodd" d="M474.744 306.186C475.05 308.236 475.824 310.179 477.005 311.847C479.292 315.067 482.777 316.915 486.564 316.915C490.352 316.915 493.836 315.067 496.124 311.845C497.308 310.174 498.079 308.232 498.376 306.186H474.744ZM486.564 320.915C481.539 320.915 476.746 318.39 473.743 314.161C471.982 311.676 470.916 308.735 470.659 305.658C470.581 304.746 470.884 303.844 471.491 303.181C472.071 302.549 472.887 302.186 473.733 302.186H499.397C500.239 302.186 501.052 302.547 501.627 303.176C502.236 303.84 502.539 304.747 502.458 305.666C502.214 308.726 501.152 311.668 499.387 314.159C496.382 318.39 491.589 320.915 486.564 320.915Z" fill="#4D0070"/>
<path fill-rule="evenodd" clip-rule="evenodd" d="M475.374 313.003C477.922 316.591 481.988 318.915 486.564 318.915C491.142 318.915 495.208 316.591 497.756 313.003C497.756 313.003 490.173 306.001 475.374 313.003Z" fill="#FF627F"/>
<path fill-rule="evenodd" clip-rule="evenodd" d="M478.669 313.758C480.832 315.787 483.606 316.915 486.564 316.915C489.676 316.915 492.584 315.667 494.792 313.435C492.31 312.156 486.957 310.539 478.669 313.758ZM486.564 320.915C481.539 320.915 476.746 318.39 473.742 314.161C473.399 313.679 473.288 313.07 473.439 312.497C473.588 311.925 473.983 311.448 474.518 311.195C490.357 303.701 498.761 311.21 499.111 311.533C499.851 312.216 499.968 313.341 499.386 314.161C496.382 318.39 491.589 320.915 486.564 320.915Z" fill="#4D0070"/>
<path fill-rule="evenodd" clip-rule="evenodd" d="M430.326 463.567L432.917 464.744L428.822 473.756L426.49 472.697C423.888 471.514 422.568 468.346 423.869 465.811C424.453 464.677 425.42 463.866 426.539 463.437C427.729 462.999 429.087 463.004 430.326 463.567Z" fill="white"/>
<path fill-rule="evenodd" clip-rule="evenodd" d="M428.282 465.124C427.929 465.124 427.574 465.187 427.23 465.314C426.757 465.496 426.075 465.896 425.647 466.728C425.311 467.381 425.271 468.158 425.534 468.914C425.837 469.784 426.487 470.499 427.317 470.876L427.829 471.108L430.268 465.738L429.499 465.389C429.499 465.389 429.499 465.388 429.498 465.388C429.112 465.213 428.699 465.124 428.282 465.124ZM428.822 475.757C428.539 475.757 428.258 475.697 427.995 475.578L425.663 474.519C423.842 473.69 422.418 472.127 421.757 470.229C421.131 468.431 421.249 466.537 422.09 464.898C422.876 463.372 424.201 462.191 425.823 461.57C427.592 460.92 429.476 460.984 431.154 461.747L433.744 462.923C434.227 463.143 434.603 463.545 434.789 464.041C434.975 464.538 434.957 465.089 434.738 465.571L430.643 474.584C430.424 475.067 430.021 475.443 429.524 475.629C429.298 475.715 429.059 475.757 428.822 475.757Z" fill="#4D0070"/>
<path fill-rule="evenodd" clip-rule="evenodd" d="M432.916 464.744L484.365 488.118L480.27 497.131L428.821 473.757L432.916 464.744Z" fill="#FF627F"/>
<path fill-rule="evenodd" clip-rule="evenodd" d="M431.47 472.764L479.278 494.483L481.717 489.112L433.909 467.393L431.47 472.764ZM480.27 499.131C479.992 499.131 479.712 499.074 479.444 498.952L427.994 475.578C427.511 475.359 427.135 474.956 426.949 474.459C426.763 473.963 426.782 473.412 427 472.93L431.095 463.917C431.552 462.91 432.739 462.471 433.743 462.923L485.193 486.297C485.676 486.517 486.052 486.919 486.238 487.416C486.424 487.912 486.406 488.463 486.187 488.946L482.092 497.958C481.757 498.696 481.03 499.131 480.27 499.131Z" fill="#4D0070"/>
<path fill-rule="evenodd" clip-rule="evenodd" d="M484.366 488.118C484.952 488.385 485.438 488.808 485.796 489.339L489.924 495.658C490.095 495.94 489.931 496.301 489.606 496.356L482.132 497.404C481.498 497.483 480.857 497.396 480.271 497.131L484.366 488.118Z" fill="#FF9F80"/>
<path fill-rule="evenodd" clip-rule="evenodd" d="M484.366 488.118C484.952 488.385 485.438 488.808 485.796 489.339L489.924 495.658C490.095 495.94 489.931 496.301 489.606 496.356L482.132 497.404C481.498 497.483 480.857 497.396 480.271 497.131L484.366 488.118Z" fill="white" fill-opacity="0.3" style="mix-blend-mode:soft-light"/>
<path fill-rule="evenodd" clip-rule="evenodd" d="M484.941 491.687L483.337 495.215L486.919 494.713L484.941 491.687ZM481.685 499.43C480.9 499.43 480.141 499.267 479.445 498.952C478.962 498.733 478.586 498.331 478.399 497.833C478.212 497.336 478.231 496.787 478.45 496.303L482.545 487.291C482.764 486.807 483.167 486.431 483.664 486.245C484.162 486.059 484.712 486.08 485.194 486.297C486.103 486.71 486.884 487.375 487.454 488.22L491.598 494.564C492.058 495.321 492.108 496.182 491.769 496.923C491.431 497.665 490.749 498.19 489.944 498.328L482.409 499.384C482.166 499.415 481.924 499.43 481.685 499.43Z" fill="#4D0070"/>
<path fill-rule="evenodd" clip-rule="evenodd" d="M454.516 471.834C462.316 469.935 470.976 471.454 468.516 477.885C468.516 477.885 473.106 478.464 474.586 482.874C475.556 485.774 473.086 489.214 469.756 489.944C469.756 489.944 468.516 496.274 457.996 491.635C457.996 491.635 452.538 491.183 442.512 497.627C433.402 503.377 417.034 515.168 404.486 524.59C366.412 553.179 320.114 586.455 303.987 569.194C287.433 551.477 323.186 500.464 357.706 453.185L378.221 467.977C359.151 491.066 338.156 525.944 322.166 550.874C323.109 550.3 346.718 537.089 387.307 510.604C387.307 510.604 438.621 475.426 454.516 471.834Z" fill="#FF9C94"/>
<path fill-rule="evenodd" clip-rule="evenodd" d="M454.516 471.834C462.316 469.935 470.976 471.454 468.516 477.885C468.516 477.885 473.106 478.464 474.586 482.874C475.556 485.774 473.086 489.214 469.756 489.944C469.756 489.944 468.516 496.274 457.996 491.635C457.996 491.635 452.538 491.183 442.512 497.627C433.402 503.377 417.034 515.168 404.486 524.59C366.412 553.179 320.114 586.455 303.987 569.194C287.433 551.477 323.186 500.464 357.706 453.185L378.221 467.977C359.151 491.066 338.156 525.944 322.166 550.874C323.109 550.3 346.718 537.089 387.307 510.604C387.307 510.604 438.621 475.426 454.516 471.834Z" fill="white" fill-opacity="0.3" style="mix-blend-mode:soft-light"/>
<path fill-rule="evenodd" clip-rule="evenodd" d="M358.15 455.97C330.231 494.215 289.412 550.665 305.448 567.829C321.168 584.651 372.571 546.053 403.285 522.99C415.634 513.718 432.222 501.757 441.445 495.936C451.73 489.325 457.534 489.593 458.162 489.642C458.383 489.66 458.6 489.715 458.803 489.805C463.492 491.872 465.704 491.394 466.602 490.923C467.555 490.426 467.792 489.568 467.793 489.56C467.947 488.778 468.549 488.161 469.328 487.991C470.561 487.72 471.719 486.862 472.349 485.753C472.605 485.301 472.991 484.408 472.69 483.508C471.621 480.328 468.299 479.873 468.266 479.869C467.657 479.792 467.117 479.439 466.8 478.913C466.485 478.387 466.429 477.744 466.648 477.17C467.276 475.528 466.733 474.912 466.528 474.68C465.204 473.177 460.527 472.429 454.99 473.777C454.979 473.78 454.967 473.782 454.956 473.785C439.614 477.252 388.948 511.903 388.438 512.253C364.63 527.789 341.762 541.938 324.008 552.12C323.561 552.377 323.292 552.53 323.207 552.582C322.411 553.064 321.387 552.936 320.736 552.271C320.085 551.605 319.98 550.578 320.483 549.794C323.487 545.11 326.668 540.075 329.98 534.833C344.151 512.4 360.16 487.061 375.327 468.355L358.15 455.97ZM316.166 575.943C310.633 575.943 306.006 574.285 302.526 570.56C285.42 552.252 318.103 504.034 356.091 452.005C356.74 451.116 357.985 450.92 358.876 451.563L379.391 466.355C379.839 466.678 380.134 467.173 380.204 467.722C380.276 468.271 380.116 468.823 379.763 469.25C364.36 487.9 347.891 513.969 333.362 536.969C331.624 539.72 329.922 542.413 328.263 545.028C344.919 535.27 365.209 522.635 386.214 508.929C388.284 507.509 437.96 473.539 454.06 469.887C459.223 468.632 466.366 468.444 469.53 472.035C470.208 472.807 471.127 474.285 470.904 476.49C472.765 477.225 475.337 478.826 476.483 482.237C477.071 483.997 476.838 485.946 475.828 487.727C474.826 489.492 473.172 490.877 471.278 491.577C470.841 492.476 470.006 493.658 468.453 494.47C465.797 495.855 462.139 495.573 457.573 493.631C456.435 493.676 451.573 494.181 443.593 499.31C434.452 505.079 417.971 516.965 405.687 526.189C371.609 551.777 337.288 575.942 316.166 575.943Z" fill="#4D0070"/>
<path fill-rule="evenodd" clip-rule="evenodd" d="M468.516 479.88C468.259 479.88 467.998 479.83 467.747 479.725C465.781 478.906 463.691 479.721 463.67 479.731C462.648 480.141 461.485 479.648 461.07 478.631C460.655 477.614 461.131 476.456 462.145 476.033C462.51 475.88 465.819 474.586 469.287 476.033C470.306 476.458 470.788 477.629 470.363 478.649C470.042 479.417 469.299 479.879 468.516 479.88Z" fill="#4D0070"/>
<path fill-rule="evenodd" clip-rule="evenodd" d="M469.75 491.944C469.598 491.944 469.444 491.927 469.29 491.891C468.215 491.638 467.548 490.561 467.801 489.486C468.071 488.34 467.736 487.924 467.626 487.788C466.95 486.949 465.08 486.681 464.264 486.681C464.229 486.681 464.198 486.682 464.168 486.682C463.08 486.682 462.188 485.809 462.169 484.717C462.15 483.613 463.029 482.702 464.134 482.682C464.58 482.677 468.646 482.678 470.74 485.277C471.503 486.223 472.288 487.881 471.695 490.402C471.479 491.323 470.657 491.944 469.75 491.944Z" fill="#4D0070"/>
<path fill-rule="evenodd" clip-rule="evenodd" d="M343.261 485.683C343.063 485.683 342.863 485.624 342.688 485.501C342.236 485.184 342.126 484.561 342.444 484.109C342.488 484.046 346.895 477.789 353.495 470.407C353.864 469.994 354.495 469.959 354.907 470.328C355.319 470.696 355.354 471.328 354.986 471.739C348.463 479.036 344.123 485.196 344.08 485.257C343.886 485.535 343.576 485.683 343.261 485.683Z" fill="white"/>
<path fill-rule="evenodd" clip-rule="evenodd" d="M315.898 567.54C315.83 567.54 315.76 567.533 315.69 567.519C307.721 565.836 307.748 559.437 307.749 559.373C307.759 558.82 308.171 558.409 308.767 558.392C309.317 558.402 309.755 558.854 309.749 559.403C309.748 559.602 309.796 564.23 316.104 565.561C316.644 565.676 316.99 566.206 316.876 566.747C316.776 567.218 316.361 567.54 315.898 567.54Z" fill="#4D0070"/>
<path fill-rule="evenodd" clip-rule="evenodd" d="M629.046 509.675H601.986C600.936 508.374 599.816 506.954 598.616 505.414L571.056 467.695L590.746 452.925C590.766 452.954 590.786 452.994 590.816 453.025C607.596 478.074 619.336 496.204 629.046 509.675Z" fill="#FF9C94"/>
<path fill-rule="evenodd" clip-rule="evenodd" d="M629.046 509.675H601.986C600.936 508.374 599.816 506.954 598.616 505.414L571.056 467.695L590.746 452.925C590.766 452.954 590.786 452.994 590.816 453.025C607.596 478.074 619.336 496.204 629.046 509.675Z" fill="white" fill-opacity="0.3" style="mix-blend-mode:soft-light"/>
<path fill-rule="evenodd" clip-rule="evenodd" d="M602.944 507.674H625.161C618.804 498.684 611.556 487.78 602.636 474.362C598.833 468.641 594.728 462.465 590.26 455.789L573.836 468.109L600.232 504.234C601.168 505.435 602.077 506.591 602.944 507.674ZM629.046 511.674H601.986C601.382 511.674 600.811 511.401 600.431 510.931C599.373 509.621 598.245 508.193 597.038 506.642L569.441 468.873C568.795 467.989 568.98 466.75 569.856 466.094L589.546 451.324C589.986 450.994 590.543 450.863 591.084 450.952C591.626 451.045 592.106 451.358 592.41 451.815C592.413 451.819 592.417 451.824 592.421 451.831C592.44 451.857 592.459 451.884 592.478 451.91C597.379 459.228 601.85 465.954 605.967 472.147C615.94 487.149 623.816 498.998 630.668 508.504C631.107 509.113 631.168 509.917 630.826 510.585C630.484 511.253 629.797 511.674 629.046 511.674Z" fill="#4D0070"/>
<path fill-rule="evenodd" clip-rule="evenodd" d="M676.626 519.694L645.296 611.084C644.256 614.144 641.376 616.194 638.146 616.194H319.026C315.796 616.194 312.916 614.144 311.866 611.084L280.536 519.694C278.855 514.784 282.506 509.674 287.696 509.674H669.466C674.656 509.674 678.306 514.784 676.626 519.694Z" fill="#C6C3FF"/>
<path fill-rule="evenodd" clip-rule="evenodd" d="M676.626 519.694L645.296 611.084C644.256 614.144 641.376 616.194 638.146 616.194H319.026C315.796 616.194 312.916 614.144 311.866 611.084L280.536 519.694C278.855 514.784 282.506 509.674 287.696 509.674H669.466C674.656 509.674 678.306 514.784 676.626 519.694Z" fill="white" fill-opacity="0.3" style="mix-blend-mode:soft-light"/>
<path fill-rule="evenodd" clip-rule="evenodd" d="M287.696 511.674C285.877 511.674 284.226 512.524 283.167 514.006C282.108 515.487 281.839 517.324 282.429 519.047L313.758 610.435C314.529 612.683 316.647 614.194 319.026 614.194H638.146C640.526 614.194 642.64 612.685 643.402 610.44L674.734 519.046L674.733 519.047C675.323 517.324 675.054 515.486 673.994 514.005C672.936 512.524 671.285 511.674 669.466 511.674H287.696ZM638.146 618.194H319.026C314.938 618.194 311.3 615.597 309.975 611.732L278.645 520.342C277.631 517.382 278.094 514.225 279.913 511.679C281.731 509.134 284.568 507.674 287.696 507.674H669.466C672.593 507.674 675.43 509.133 677.248 511.678C679.068 514.224 679.531 517.381 678.519 520.341L678.518 520.342L647.188 611.732C645.875 615.595 642.24 618.194 638.146 618.194Z" fill="#4D0070"/>
<path fill-rule="evenodd" clip-rule="evenodd" d="M364.757 629.98H592.513V616.198H364.757V629.98Z" fill="#C6C3FF"/>
<path fill-rule="evenodd" clip-rule="evenodd" d="M364.757 629.98H592.513V616.198H364.757V629.98Z" fill="white" fill-opacity="0.3" style="mix-blend-mode:soft-light"/>
<g opacity="0.2">
<path fill-rule="evenodd" clip-rule="evenodd" d="M364.757 629.98H592.513V616.198H364.757V629.98Z" fill="black" fill-opacity="0.5" style="mix-blend-mode:hard-light"/>
</g>
<path fill-rule="evenodd" clip-rule="evenodd" d="M366.757 627.98H590.513V618.198H366.757V627.98ZM592.513 631.98H364.757C363.653 631.98 362.757 631.085 362.757 629.98V616.198C362.757 615.093 363.653 614.198 364.757 614.198H592.513C593.617 614.198 594.513 615.093 594.513 616.198V629.98C594.513 631.085 593.617 631.98 592.513 631.98Z" fill="#4D0070"/>
<path fill-rule="evenodd" clip-rule="evenodd" d="M621.689 647.033H335.473V644.074C335.473 636.29 341.783 629.98 349.567 629.98H607.595C615.379 629.98 621.689 636.29 621.689 644.074V647.033Z" fill="#C6C3FF"/>
<path fill-rule="evenodd" clip-rule="evenodd" d="M621.689 647.033H335.473V644.074C335.473 636.29 341.783 629.98 349.567 629.98H607.595C615.379 629.98 621.689 636.29 621.689 644.074V647.033Z" fill="white" fill-opacity="0.3" style="mix-blend-mode:soft-light"/>
<path fill-rule="evenodd" clip-rule="evenodd" d="M337.473 645.033H619.689V644.074C619.689 637.405 614.264 631.98 607.595 631.98H349.567C342.898 631.98 337.473 637.405 337.473 644.074V645.033ZM621.689 649.033H335.473C334.369 649.033 333.473 648.137 333.473 647.033V644.074C333.473 635.2 340.693 627.98 349.567 627.98H607.595C616.469 627.98 623.689 635.2 623.689 644.074V647.033C623.689 648.137 622.793 649.033 621.689 649.033Z" fill="#4D0070"/>
<path fill-rule="evenodd" clip-rule="evenodd" d="M498.746 563.195C498.746 570.007 489.742 575.528 478.636 575.528C467.529 575.528 458.525 570.007 458.525 563.195C458.525 556.383 467.529 550.861 478.636 550.861C489.742 550.861 498.746 556.383 498.746 563.195Z" fill="white"/>
<path fill-rule="evenodd" clip-rule="evenodd" d="M591.313 575.254C591.203 575.254 591.091 575.236 590.981 575.197L571.284 568.268C570.763 568.084 570.489 567.514 570.672 566.992C570.856 566.471 571.424 566.195 571.948 566.381L591.645 573.311C592.166 573.494 592.44 574.065 592.256 574.586C592.112 574.997 591.725 575.254 591.313 575.254Z" fill="#4D0070"/>
<path fill-rule="evenodd" clip-rule="evenodd" d="M590.634 566.872C590.524 566.872 590.412 566.854 590.302 566.815L580.453 563.351C579.933 563.167 579.658 562.597 579.842 562.075C580.026 561.554 580.593 561.278 581.117 561.464L590.966 564.929C591.487 565.112 591.761 565.683 591.577 566.204C591.433 566.615 591.046 566.872 590.634 566.872Z" fill="#4D0070"/>
<path fill-rule="evenodd" clip-rule="evenodd" d="M580.412 581.001C580.302 581.001 580.19 580.983 580.08 580.944L575.155 579.212C574.635 579.028 574.36 578.458 574.544 577.937C574.727 577.415 575.295 577.14 575.819 577.325L580.744 579.058C581.265 579.241 581.539 579.812 581.355 580.333C581.211 580.744 580.824 581.001 580.412 581.001Z" fill="#4D0070"/>
<path fill-rule="evenodd" clip-rule="evenodd" d="M671.432 564.647C671.432 564.647 672.515 560.31 664.653 559.035C656.79 557.759 651.632 558.567 650.945 562.485C650.258 566.402 659.841 568.16 665.487 567.886C671.131 567.612 671.432 564.647 671.432 564.647Z" fill="#FF9C94"/>
<path fill-rule="evenodd" clip-rule="evenodd" d="M671.432 564.647C671.432 564.647 672.515 560.31 664.653 559.035C656.79 557.759 651.632 558.567 650.945 562.485C650.258 566.402 659.841 568.16 665.487 567.886C671.131 567.612 671.432 564.647 671.432 564.647Z" fill="white" fill-opacity="0.3" style="mix-blend-mode:soft-light"/>
<path fill-rule="evenodd" clip-rule="evenodd" d="M658.614 560.49C655.835 560.49 653.237 560.998 652.915 562.831C652.906 562.88 652.892 562.962 653.083 563.178C654.52 564.808 660.501 566.129 665.39 565.888C668.775 565.724 669.441 564.458 669.442 564.445C669.45 564.372 669.462 564.298 669.477 564.225C669.607 563.356 668.67 561.713 664.333 561.01C662.933 560.782 660.721 560.49 658.614 560.49ZM664.325 569.913C659.539 569.913 652.654 568.739 650.083 565.824C649.126 564.739 648.743 563.466 648.975 562.139C649.843 557.188 655.224 555.48 664.973 557.06C668.656 557.658 671.198 558.984 672.528 561.003C673.85 563.01 673.426 564.921 673.373 565.132C673.141 566.157 671.899 569.577 665.584 569.885C665.185 569.903 664.764 569.913 664.325 569.913Z" fill="#4D0070"/>
<path fill-rule="evenodd" clip-rule="evenodd" d="M669.877 573.596C669.877 573.596 670.959 569.264 663.106 567.99C655.251 566.716 650.099 567.523 649.413 571.436C648.727 575.349 658.299 577.105 663.938 576.831C669.576 576.557 669.877 573.596 669.877 573.596Z" fill="#FF9C94"/>
<path fill-rule="evenodd" clip-rule="evenodd" d="M669.877 573.596C669.877 573.596 670.959 569.264 663.106 567.99C655.251 566.716 650.099 567.523 649.413 571.436C648.727 575.349 658.299 577.105 663.938 576.831C669.576 576.557 669.877 573.596 669.877 573.596Z" fill="white" fill-opacity="0.3" style="mix-blend-mode:soft-light"/>
<path fill-rule="evenodd" clip-rule="evenodd" d="M657.073 569.446C654.298 569.446 651.703 569.952 651.383 571.781C651.374 571.831 651.361 571.913 651.55 572.127C652.985 573.755 658.964 575.074 663.841 574.833C666.626 574.699 667.681 573.826 667.885 573.328C667.882 573.233 667.893 573.265 667.925 573.157C668.038 572.286 667.086 570.662 662.785 569.964C661.387 569.737 659.178 569.446 657.073 569.446ZM662.776 578.858C657.994 578.858 651.118 577.685 648.55 574.773C647.594 573.689 647.211 572.415 647.444 571.09C648.31 566.144 653.683 564.436 663.426 566.015C667.106 566.613 669.645 567.938 670.974 569.955C672.295 571.959 671.87 573.87 671.818 574.081C671.586 575.105 670.345 578.522 664.035 578.83C663.636 578.848 663.215 578.858 662.776 578.858Z" fill="#4D0070"/>
<path fill-rule="evenodd" clip-rule="evenodd" d="M666.92 582.118C666.92 582.118 667.942 578.019 660.514 576.814C653.084 575.609 648.21 576.373 647.561 580.075C646.911 583.776 655.967 585.437 661.301 585.179C666.636 584.92 666.92 582.118 666.92 582.118Z" fill="#FF9C94"/>
<path fill-rule="evenodd" clip-rule="evenodd" d="M666.92 582.118C666.92 582.118 667.942 578.019 660.514 576.814C653.084 575.609 648.21 576.373 647.561 580.075C646.911 583.776 655.967 585.437 661.301 585.179C666.636 584.92 666.92 582.118 666.92 582.118Z" fill="white" fill-opacity="0.3" style="mix-blend-mode:soft-light"/>
<path fill-rule="evenodd" clip-rule="evenodd" d="M654.776 578.295C652.206 578.295 649.823 578.759 649.531 580.421C649.528 580.438 649.518 580.493 649.662 580.657C651.003 582.177 656.606 583.413 661.204 583.181C664.101 583.041 664.789 582.097 664.924 581.837C664.911 581.711 664.906 581.837 664.968 581.666C665.045 580.875 664.13 579.427 660.194 578.789C658.869 578.574 656.767 578.295 654.776 578.295ZM660.187 587.204C655.854 587.204 649.236 586.22 646.663 583.303C645.736 582.252 645.366 581.017 645.591 579.729C646.425 574.98 651.553 573.334 660.834 574.84C664.346 575.41 666.772 576.679 668.046 578.612C669.323 580.548 668.911 582.397 668.861 582.603C668.633 583.603 667.429 586.884 661.398 587.177C661.021 587.194 660.615 587.204 660.187 587.204Z" fill="#4D0070"/>
<path fill-rule="evenodd" clip-rule="evenodd" d="M326.046 436.669C325.792 436.669 325.538 436.573 325.343 436.381C324.95 435.992 324.946 435.359 325.334 434.966C328.516 431.745 331.708 428.758 334.822 426.089C335.241 425.73 335.873 425.776 336.232 426.197C336.592 426.616 336.543 427.247 336.123 427.606C333.051 430.24 329.9 433.19 326.758 436.372C326.562 436.569 326.304 436.669 326.046 436.669Z" fill="#4D0070"/>
<path fill-rule="evenodd" clip-rule="evenodd" d="M295.772 474.757C295.591 474.757 295.408 474.708 295.243 474.605C294.775 474.313 294.632 473.695 294.925 473.227C295.024 473.069 304.997 457.195 319.326 441.335C319.696 440.926 320.33 440.895 320.739 441.264C321.148 441.634 321.18 442.267 320.81 442.677C306.604 458.399 296.719 474.13 296.621 474.287C296.431 474.591 296.105 474.757 295.772 474.757Z" fill="#4D0070"/>
<path fill-rule="evenodd" clip-rule="evenodd" d="M648.146 484.246C647.804 484.246 647.471 484.07 647.284 483.755C645.309 480.413 643.189 476.984 640.982 473.562C640.682 473.099 640.816 472.479 641.28 472.181C641.741 471.879 642.363 472.014 642.662 472.478C644.883 475.922 647.018 479.373 649.006 482.737C649.287 483.213 649.129 483.826 648.654 484.107C648.494 484.201 648.319 484.246 648.146 484.246Z" fill="#4D0070"/>
<path fill-rule="evenodd" clip-rule="evenodd" d="M637.639 467.692C637.318 467.692 637.003 467.538 636.81 467.253C622.82 446.578 609.334 431.351 609.2 431.2C608.832 430.788 608.869 430.156 609.283 429.789C609.695 429.421 610.327 429.458 610.694 429.872C610.829 430.024 624.399 445.341 638.466 466.131C638.776 466.589 638.656 467.211 638.199 467.52C638.027 467.636 637.831 467.692 637.639 467.692Z" fill="#4D0070"/>
<path fill-rule="evenodd" clip-rule="evenodd" d="M187.704 538.19L177.795 541.354C176.873 537.114 176.25 532.798 176.173 528.672L182.142 526.666C184.171 530.301 185.937 533.955 187.704 538.19Z" fill="white"/>
<path fill-rule="evenodd" clip-rule="evenodd" d="M178.222 530.093C178.356 532.768 178.72 535.675 179.309 538.771L185.001 536.953C183.786 534.174 182.546 531.614 181.192 529.095L178.222 530.093ZM177.794 543.354C177.447 543.354 177.101 543.263 176.794 543.085C176.306 542.804 175.959 542.329 175.84 541.779C174.807 537.027 174.245 532.63 174.172 528.709C174.157 527.837 174.707 527.055 175.534 526.777L181.504 524.77C182.421 524.461 183.42 524.85 183.889 525.691C185.966 529.415 187.765 533.143 189.549 537.42C189.765 537.937 189.754 538.521 189.519 539.03C189.284 539.538 188.846 539.924 188.312 540.095L178.403 543.259C178.204 543.322 177.998 543.354 177.794 543.354Z" fill="#4D0070"/>
<path fill-rule="evenodd" clip-rule="evenodd" d="M203.136 598.568C201.906 598.987 200.444 598.171 199.72 596.65L189.18 573.706C188.322 571.849 187.51 569.955 186.732 568.051C184.39 562.335 180.122 552.075 177.794 541.354L187.703 538.19C190.322 544.497 192.927 552.098 196.323 562.841C197.087 565.237 197.77 567.653 198.384 570.087L204.688 594.964C204.864 595.789 204.795 596.583 204.508 597.226C204.235 597.868 203.764 598.351 203.136 598.568Z" fill="#C6C3FF"/>
<path fill-rule="evenodd" clip-rule="evenodd" d="M180.152 542.701C182.43 552.286 186.119 561.283 188.375 566.786L188.583 567.294C189.427 569.359 190.216 571.181 190.996 572.866L201.538 595.815C201.864 596.503 202.381 596.709 202.488 596.676C202.576 596.641 202.643 596.502 202.669 596.442C202.798 596.151 202.816 595.775 202.732 595.381L196.446 570.578C195.826 568.121 195.143 565.723 194.418 563.45C191.12 553.016 188.775 546.214 186.55 540.658L180.152 542.701ZM202.45 600.682C200.634 600.682 198.858 599.491 197.915 597.51L187.363 574.541C186.56 572.805 185.748 570.929 184.881 568.808L184.673 568.304C182.229 562.341 178.138 552.361 175.84 541.779C175.622 540.771 176.204 539.763 177.186 539.449L187.095 536.285C188.089 535.968 189.154 536.464 189.55 537.424C192.038 543.415 194.552 550.604 198.23 562.239C198.979 564.585 199.684 567.062 200.324 569.597L206.627 594.472C206.909 595.787 206.801 596.996 206.335 598.041C205.844 599.193 204.935 600.063 203.789 600.459C203.787 600.46 203.784 600.461 203.781 600.462C203.342 600.61 202.895 600.682 202.45 600.682Z" fill="#4D0070"/>
<path fill-rule="evenodd" clip-rule="evenodd" d="M183.08 525.85C182.896 526.091 182.419 526.57 182.143 526.665L176.173 528.672C175.828 528.787 174.823 528.381 174.492 528.221C173.239 527.619 166.771 524.505 167.205 516.724C167.649 508.81 173.681 503.664 175.289 502.422C175.439 502.308 175.649 502.439 175.636 502.633C175.406 505.951 176.379 506.99 182.351 511.89C188.92 517.294 184.351 524.162 183.08 525.85Z" fill="#FF80B0"/>
<path fill-rule="evenodd" clip-rule="evenodd" d="M183.08 525.85C182.896 526.091 182.419 526.57 182.143 526.665L176.173 528.672C175.828 528.787 174.823 528.381 174.492 528.221C173.239 527.619 166.771 524.505 167.205 516.724C167.649 508.81 173.681 503.664 175.289 502.422C175.439 502.308 175.649 502.439 175.636 502.633C175.406 505.951 176.379 506.99 182.351 511.89C188.92 517.294 184.351 524.162 183.08 525.85Z" fill="white" fill-opacity="0.3" style="mix-blend-mode:soft-light"/>
<path fill-rule="evenodd" clip-rule="evenodd" d="M174.107 506.206C172.005 508.445 169.467 512.096 169.202 516.837C168.905 522.167 172.386 524.989 175.359 526.419C175.511 526.493 175.749 526.585 175.931 526.643L181.29 524.843C181.363 524.776 181.45 524.687 181.49 524.638C185.881 518.797 183.119 515.112 181.08 513.434C177.082 510.155 174.98 508.339 174.107 506.206ZM176.016 530.688C175.338 530.688 174.537 530.466 173.62 530.022C167.953 527.296 164.885 522.408 165.207 516.613C165.694 507.95 172.111 502.35 174.066 500.84C174.767 500.308 175.703 500.235 176.463 500.647C177.234 501.063 177.692 501.898 177.63 502.774C177.476 505.003 177.685 505.475 183.619 510.345C189.829 515.454 188.238 522.326 184.677 527.054C184.675 527.057 184.673 527.059 184.671 527.061C184.581 527.18 183.77 528.219 182.796 528.556L176.81 530.568C176.568 530.648 176.303 530.688 176.016 530.688Z" fill="#4D0070"/>
<path fill-rule="evenodd" clip-rule="evenodd" d="M203.249 600.214L203.66 597.174L214.234 598.603L213.865 601.338C213.452 604.392 210.592 606.737 207.571 606.182C206.219 605.932 205.081 605.186 204.291 604.164C203.469 603.07 203.053 601.668 203.249 600.214Z" fill="white"/>
<path fill-rule="evenodd" clip-rule="evenodd" d="M205.231 600.481C205.112 601.359 205.346 602.24 205.889 602.961C206.392 603.612 207.125 604.065 207.934 604.214C208.754 604.367 209.615 604.157 210.347 603.626C211.185 603.018 211.746 602.086 211.882 601.069L211.985 600.316L205.374 599.423L205.231 600.481ZM208.472 608.264C208.052 608.264 207.629 608.225 207.209 608.148C205.429 607.819 203.832 606.838 202.709 605.387C201.512 603.796 201.006 601.873 201.266 599.946L201.677 596.906C201.826 595.81 202.843 595.046 203.927 595.191L214.502 596.62C215.596 596.768 216.364 597.775 216.216 598.87L215.847 601.605C215.563 603.701 214.415 605.618 212.695 606.864C211.425 607.784 209.961 608.264 208.472 608.264Z" fill="#4D0070"/>
<path fill-rule="evenodd" clip-rule="evenodd" d="M203.66 597.174L211.815 536.804L222.39 538.233L214.234 598.603L203.66 597.174Z" fill="#99D09D"/>
<path fill-rule="evenodd" clip-rule="evenodd" d="M203.66 597.174L211.815 536.804L222.39 538.233L214.234 598.603L203.66 597.174Z" fill="white" fill-opacity="0.3" style="mix-blend-mode:soft-light"/>
<path fill-rule="evenodd" clip-rule="evenodd" d="M205.91 595.46L212.52 596.353L220.14 539.946L213.529 539.054L205.91 595.46ZM214.234 600.603C214.145 600.603 214.056 600.597 213.967 600.585L203.392 599.156C202.298 599.008 201.53 598.001 201.678 596.906L209.833 536.536C209.904 536.011 210.181 535.534 210.603 535.213C211.024 534.892 211.559 534.749 212.083 534.821L222.658 536.25C223.183 536.321 223.66 536.599 223.981 537.021C224.303 537.442 224.443 537.975 224.373 538.5L216.217 598.87C216.145 599.396 215.868 599.872 215.446 600.193C215.097 600.46 214.67 600.603 214.234 600.603Z" fill="#4D0070"/>
<path fill-rule="evenodd" clip-rule="evenodd" d="M211.815 536.803C211.908 536.116 212.196 535.482 212.631 534.949L217.874 528.725C218.111 528.46 218.534 528.518 218.693 528.835L222.095 536.227C222.375 536.857 222.483 537.544 222.39 538.232L211.815 536.803Z" fill="#FF9F80"/>
<path fill-rule="evenodd" clip-rule="evenodd" d="M211.815 536.803C211.908 536.116 212.196 535.482 212.631 534.949L217.874 528.725C218.111 528.46 218.534 528.518 218.693 528.835L222.095 536.227C222.375 536.857 222.483 537.544 222.39 538.232L211.815 536.803Z" fill="white" fill-opacity="0.3" style="mix-blend-mode:soft-light"/>
<path fill-rule="evenodd" clip-rule="evenodd" d="M215.019 535.219L219.721 535.854L217.871 531.833L215.019 535.219ZM222.39 540.233C222.301 540.233 222.211 540.227 222.123 540.215L211.547 538.786C210.453 538.638 209.685 537.631 209.832 536.536C209.973 535.5 210.405 534.514 211.082 533.684L216.344 527.438C216.937 526.774 217.763 526.467 218.577 526.58C219.397 526.69 220.109 527.198 220.481 527.94L223.912 535.392C224.357 536.395 224.512 537.461 224.373 538.5C224.301 539.026 224.024 539.502 223.602 539.823C223.252 540.09 222.826 540.233 222.39 540.233Z" fill="#4D0070"/>
<path fill-rule="evenodd" clip-rule="evenodd" d="M242.745 565.601L238.282 594.879H169.484L165.496 565.601H242.745Z" fill="white"/>
<path fill-rule="evenodd" clip-rule="evenodd" d="M171.23 592.88H236.564L240.417 567.602H167.787L171.23 592.88ZM238.282 596.88H169.484C168.484 596.88 167.637 596.141 167.502 595.15L163.514 565.871C163.436 565.299 163.609 564.722 163.989 564.286C164.369 563.852 164.918 563.602 165.496 563.602H242.745C243.328 563.602 243.881 563.857 244.261 564.298C244.642 564.74 244.81 565.326 244.722 565.903L240.259 595.182C240.11 596.158 239.27 596.88 238.282 596.88Z" fill="#4D0070"/>
<path fill-rule="evenodd" clip-rule="evenodd" d="M238.282 594.88L230.707 644.569C230.464 646.167 229.091 647.347 227.475 647.347H179.471C177.838 647.347 176.455 646.141 176.233 644.522V644.5L169.484 594.88H238.282Z" fill="#FF627F"/>
<path fill-rule="evenodd" clip-rule="evenodd" d="M178.223 644.307C178.333 644.904 178.86 645.346 179.471 645.346H227.475C228.107 645.346 228.634 644.893 228.729 644.268L235.953 596.879H171.774L178.214 644.23C178.218 644.255 178.221 644.282 178.223 644.307ZM227.475 649.346H179.471C176.851 649.346 174.607 647.388 174.251 644.792C174.246 644.756 174.243 644.72 174.24 644.684L167.502 595.149C167.424 594.577 167.597 593.998 167.977 593.564C168.357 593.129 168.907 592.879 169.484 592.879H238.282C238.865 592.879 239.418 593.134 239.798 593.576C240.179 594.018 240.347 594.604 240.259 595.181L232.684 644.87C232.288 647.463 230.098 649.346 227.475 649.346Z" fill="#4D0070"/>
<path fill-rule="evenodd" clip-rule="evenodd" d="M214.643 630.041C214.533 630.041 214.421 630.023 214.311 629.984L197.884 624.205C197.364 624.021 197.089 623.451 197.273 622.93C197.456 622.408 198.027 622.134 198.548 622.318L214.975 628.098C215.496 628.281 215.77 628.852 215.586 629.373C215.442 629.784 215.055 630.041 214.643 630.041Z" fill="#4D0070"/>
<path fill-rule="evenodd" clip-rule="evenodd" d="M213.165 620.742C213.055 620.742 212.943 620.724 212.833 620.685L207.082 618.663C206.561 618.479 206.287 617.909 206.471 617.388C206.654 616.866 207.224 616.592 207.746 616.776L213.497 618.799C214.018 618.982 214.292 619.553 214.108 620.074C213.964 620.485 213.577 620.742 213.165 620.742Z" fill="#4D0070"/>
<path fill-rule="evenodd" clip-rule="evenodd" d="M271.678 57.7087V237.31C271.678 244.579 265.797 250.459 258.537 250.459H47.8982C40.6382 250.459 34.7472 244.579 34.7472 237.31V57.7087H271.678Z" fill="white"/>
<path fill-rule="evenodd" clip-rule="evenodd" d="M36.7475 59.7087V237.31C36.7475 243.457 41.7495 248.459 47.8975 248.459H258.538C264.681 248.459 269.679 243.457 269.679 237.31V59.7087H36.7475ZM258.538 252.459H47.8975C39.5445 252.459 32.7475 245.663 32.7475 237.31V57.7087C32.7475 56.6047 33.6435 55.7087 34.7475 55.7087H271.679C272.783 55.7087 273.679 56.6047 273.679 57.7087V237.31C273.679 245.663 266.887 252.459 258.538 252.459Z" fill="#4D0070"/>
<path fill-rule="evenodd" clip-rule="evenodd" d="M271.678 51.7087V57.7087H34.7472V51.7087C34.7472 44.4487 40.6382 38.5597 47.8982 38.5597H258.537C265.797 38.5597 271.678 44.4487 271.678 51.7087Z" fill="white"/>
<path fill-rule="evenodd" clip-rule="evenodd" d="M36.7475 55.7087H269.679V51.7087C269.679 45.5617 264.681 40.5597 258.538 40.5597H47.8975C41.7495 40.5597 36.7475 45.5617 36.7475 51.7087V55.7087ZM271.679 59.7087H34.7475C33.6435 59.7087 32.7475 58.8127 32.7475 57.7087V51.7087C32.7475 43.3547 39.5445 36.5597 47.8975 36.5597H258.538C266.887 36.5597 273.679 43.3547 273.679 51.7087V57.7087C273.679 58.8127 272.783 59.7087 271.679 59.7087Z" fill="#4D0070"/>
<path fill-rule="evenodd" clip-rule="evenodd" d="M101.931 49.8835H55.9731C55.0061 49.8835 54.2231 49.1005 54.2231 48.1335C54.2231 47.1665 55.0061 46.3835 55.9731 46.3835H101.931C102.898 46.3835 103.681 47.1665 103.681 48.1335C103.681 49.1005 102.898 49.8835 101.931 49.8835Z" fill="#4D0070"/>
<path fill-rule="evenodd" clip-rule="evenodd" d="M257.619 227.023C257.5 231.262 254.894 235.215 250.696 236.852L257.619 227.023Z" fill="white"/>
<path fill-rule="evenodd" clip-rule="evenodd" d="M250.696 237.852C250.297 237.852 249.919 237.611 249.764 237.215C249.564 236.701 249.818 236.121 250.333 235.92C254.04 234.475 256.508 230.971 256.619 226.995C256.634 226.443 257.123 226.002 257.647 226.023C258.199 226.039 258.633 226.498 258.619 227.051C258.484 231.833 255.517 236.045 251.059 237.784C250.94 237.831 250.817 237.852 250.696 237.852Z" fill="#4D0070"/>
<path fill-rule="evenodd" clip-rule="evenodd" d="M243.44 87.2781V168.908C238.83 162.948 234.799 155.967 227.7 154.548C220.45 153.098 213.78 158.278 207.139 161.558C197.81 166.168 186.33 167.108 177.03 162.438C170.36 159.078 165.219 153.158 158.49 149.927C152.759 147.188 144.71 147.448 140.81 151.887V87.2781C140.81 85.8481 141.969 84.6771 143.41 84.6771H240.839C242.28 84.6771 243.44 85.8481 243.44 87.2781Z" fill="#81B9FF"/>
<path fill-rule="evenodd" clip-rule="evenodd" d="M243.44 87.2781V168.908C238.83 162.948 234.799 155.967 227.7 154.548C220.45 153.098 213.78 158.278 207.139 161.558C197.81 166.168 186.33 167.108 177.03 162.438C170.36 159.078 165.219 153.158 158.49 149.927C152.759 147.188 144.71 147.448 140.81 151.887V87.2781C140.81 85.8481 141.969 84.6771 143.41 84.6771H240.839C242.28 84.6771 243.44 85.8481 243.44 87.2781Z" fill="white" fill-opacity="0.3" style="mix-blend-mode:soft-light"/>
<path fill-rule="evenodd" clip-rule="evenodd" d="M150.49 146.172C153.6 146.172 156.742 146.875 159.352 148.123C162.991 149.87 166.155 152.333 169.215 154.715C172.111 156.97 174.846 159.099 177.929 160.652C186.045 164.727 196.898 164.386 206.254 159.766C207.627 159.087 208.986 158.333 210.426 157.535C215.952 154.47 221.669 151.303 228.092 152.587C234.011 153.771 237.895 158.194 241.44 162.892V87.2776C241.44 86.9466 241.171 86.6776 240.84 86.6776H143.41C143.079 86.6776 142.81 86.9466 142.81 87.2776V147.876C145.098 146.705 147.782 146.172 150.49 146.172ZM243.44 170.908C242.833 170.908 242.245 170.631 241.858 170.132C241.127 169.187 240.409 168.215 239.692 167.244C236.012 162.262 232.537 157.555 227.307 156.509C222.32 155.518 217.486 158.194 212.365 161.033C210.949 161.819 209.483 162.632 208.025 163.352C197.409 168.596 185.488 168.923 176.133 164.226C172.697 162.495 169.677 160.145 166.758 157.871C163.731 155.516 160.873 153.29 157.625 151.731C152.878 149.462 145.673 149.38 142.313 153.208C141.763 153.833 140.884 154.054 140.105 153.759C139.326 153.466 138.81 152.721 138.81 151.888V87.2776C138.81 84.7406 140.874 82.6776 143.41 82.6776H240.84C243.377 82.6776 245.44 84.7406 245.44 87.2776V168.908C245.44 169.764 244.896 170.525 244.087 170.801C243.875 170.873 243.656 170.908 243.44 170.908Z" fill="#4D0070"/>
<path fill-rule="evenodd" clip-rule="evenodd" d="M192.124 122.927C192.124 130.118 186.294 135.948 179.103 135.948C171.911 135.948 166.082 130.118 166.082 122.927C166.082 115.735 171.911 109.906 179.103 109.906C186.294 109.906 192.124 115.735 192.124 122.927Z" fill="white"/>
<path fill-rule="evenodd" clip-rule="evenodd" d="M179.103 111.905C173.026 111.905 168.082 116.849 168.082 122.926C168.082 129.004 173.026 133.947 179.103 133.947C185.18 133.947 190.124 129.004 190.124 122.926C190.124 116.849 185.18 111.905 179.103 111.905ZM179.103 137.947C170.821 137.947 164.082 131.209 164.082 122.926C164.082 114.643 170.821 107.905 179.103 107.905C187.386 107.905 194.124 114.643 194.124 122.926C194.124 131.209 187.386 137.947 179.103 137.947Z" fill="#4D0070"/>
<path fill-rule="evenodd" clip-rule="evenodd" d="M243.44 168.908V221.158C243.44 222.588 242.28 223.758 240.839 223.758H143.41C141.969 223.758 140.81 222.588 140.81 221.158V151.887C144.71 147.448 152.759 147.188 158.49 149.928C165.219 153.158 170.36 159.078 177.03 162.438C186.33 167.108 197.81 166.168 207.139 161.558C213.78 158.278 220.45 153.098 227.7 154.548C234.799 155.968 238.83 162.948 243.44 168.908Z" fill="white"/>
<path fill-rule="evenodd" clip-rule="evenodd" d="M142.81 152.695V221.158C142.81 221.489 143.079 221.758 143.41 221.758H240.839C241.17 221.758 241.44 221.489 241.44 221.158V169.587C240.852 168.814 240.272 168.029 239.692 167.244C236.012 162.261 232.537 157.554 227.307 156.508C222.32 155.517 217.486 158.194 212.365 161.033C210.949 161.819 209.483 162.632 208.025 163.351C197.409 168.595 185.488 168.923 176.132 164.225C172.697 162.495 169.677 160.144 166.757 157.871C163.731 155.515 160.872 153.29 157.624 151.73C153.101 149.568 146.343 149.393 142.81 152.695ZM240.839 225.758H143.41C140.873 225.758 138.81 223.694 138.81 221.158V151.887C138.81 151.402 138.987 150.932 139.307 150.567C143.964 145.267 153.155 145.16 159.352 148.123C162.991 149.87 166.155 152.333 169.214 154.715C172.111 156.969 174.846 159.098 177.929 160.652C186.044 164.726 196.898 164.385 206.253 159.765C207.626 159.087 208.986 158.333 210.425 157.535C215.952 154.469 221.668 151.302 228.091 152.587C234.836 153.935 238.941 159.493 242.91 164.868C243.609 165.814 244.308 166.761 245.022 167.684C245.292 168.035 245.44 168.465 245.44 168.908V221.158C245.44 223.694 243.376 225.758 240.839 225.758Z" fill="#4D0070"/>
<path fill-rule="evenodd" clip-rule="evenodd" d="M158.326 177.364C166.713 176.867 172.605 180.462 179.801 184.102C184.548 186.505 189.457 187.853 194.666 186.229C196.503 185.657 195.719 182.76 193.868 183.337C186.19 185.729 179.985 180.358 173.469 177.239C168.672 174.943 163.62 174.051 158.326 174.364C156.407 174.477 156.394 177.478 158.326 177.364Z" fill="#4D0070"/>
<path fill-rule="evenodd" clip-rule="evenodd" d="M205.976 182.135C210.662 177.744 217.228 182.263 221.909 184.238C225.332 185.683 228.578 186.321 232.19 185.266C234.039 184.726 233.252 181.829 231.393 182.372C222.17 185.066 212.594 171.825 203.855 180.014C202.443 181.336 204.567 183.454 205.976 182.135Z" fill="#4D0070"/>
<path fill-rule="evenodd" clip-rule="evenodd" d="M149.914 194.26C159.055 190.106 165.976 194.192 172.814 200.182C176.841 203.709 181.397 206.262 186.845 206.653C192.945 207.09 197.136 204.093 202.283 201.412C210.56 197.101 221.11 197.622 225.81 206.671C226.7 208.385 229.29 206.869 228.4 205.156C225.374 199.33 219.579 195.839 213.018 195.624C209.24 195.5 205.488 196.478 202.107 198.119C198.183 200.026 194.834 202.87 190.393 203.516C179.898 205.04 175.323 196.323 167.32 191.949C161.359 188.692 154.462 188.914 148.399 191.669C146.644 192.467 148.168 195.053 149.914 194.26Z" fill="#4D0070"/>
<path fill-rule="evenodd" clip-rule="evenodd" d="M155.734 213.512C160.252 212.206 164.71 213.083 168.466 215.893C170.013 217.05 171.51 214.447 169.981 213.303C165.628 210.047 160.146 209.114 154.936 210.619C153.086 211.155 153.873 214.05 155.734 213.512Z" fill="#4D0070"/>
<path fill-rule="evenodd" clip-rule="evenodd" d="M207.724 214.747C211.301 213.859 214.837 213.875 218.409 214.79C220.28 215.269 221.078 212.377 219.205 211.897C215.123 210.851 211.016 210.839 206.926 211.854C205.053 212.319 205.847 215.213 207.724 214.747Z" fill="#4D0070"/>
<path fill-rule="evenodd" clip-rule="evenodd" d="M121.341 146.669H66.6122C64.6082 146.669 62.9832 145.044 62.9832 143.039V88.3108C62.9832 86.3058 64.6082 84.6808 66.6122 84.6808H121.341C123.346 84.6808 124.971 86.3058 124.971 88.3108V143.039C124.971 145.044 123.346 146.669 121.341 146.669Z" fill="#FF80B0"/>
<path fill-rule="evenodd" clip-rule="evenodd" d="M66.6127 86.6804C65.7147 86.6804 64.9827 87.4114 64.9827 88.3104V143.038C64.9827 143.937 65.7147 144.668 66.6127 144.668H121.342C122.24 144.668 122.971 143.937 122.971 143.038V88.3104C122.971 87.4114 122.24 86.6804 121.342 86.6804H66.6127ZM121.342 148.668H66.6127C63.5087 148.668 60.9827 146.143 60.9827 143.038V88.3104C60.9827 85.2054 63.5087 82.6804 66.6127 82.6804H121.342C124.446 82.6804 126.971 85.2054 126.971 88.3104V143.038C126.971 146.143 124.446 148.668 121.342 148.668Z" fill="#4D0070"/>
<path fill-rule="evenodd" clip-rule="evenodd" d="M123.806 146.699C123.549 146.699 123.293 146.601 123.098 146.405L63.3361 86.451C62.9471 86.059 62.9481 85.427 63.3381 85.037C63.7301 84.646 64.3631 84.647 64.7521 85.039L124.514 144.993C124.904 145.385 124.903 146.017 124.512 146.407C124.317 146.601 124.061 146.699 123.806 146.699Z" fill="#4D0070"/>
<path fill-rule="evenodd" clip-rule="evenodd" d="M63.5903 146.049C63.3313 146.049 63.0733 145.949 62.8773 145.751C62.4903 145.358 62.4953 144.724 62.8883 144.336L123.104 85.0317C123.498 84.6447 124.13 84.6507 124.519 85.0427C124.905 85.4367 124.901 86.0697 124.508 86.4577L64.2923 145.762C64.0973 145.953 63.8433 146.049 63.5903 146.049Z" fill="#4D0070"/>
<path fill-rule="evenodd" clip-rule="evenodd" d="M123.405 223.487H64.5497C63.6837 223.487 62.9827 222.786 62.9827 221.921V163.065C62.9827 162.2 63.6837 161.499 64.5497 161.499H123.405C124.27 161.499 124.971 162.2 124.971 163.065V221.921C124.971 222.786 124.27 223.487 123.405 223.487Z" fill="#C6C3FF"/>
<path fill-rule="evenodd" clip-rule="evenodd" d="M123.405 223.487H64.5497C63.6837 223.487 62.9827 222.786 62.9827 221.921V163.065C62.9827 162.2 63.6837 161.499 64.5497 161.499H123.405C124.27 161.499 124.971 162.2 124.971 163.065V221.921C124.971 222.786 124.27 223.487 123.405 223.487Z" fill="white" fill-opacity="0.3" style="mix-blend-mode:soft-light"/>
<path fill-rule="evenodd" clip-rule="evenodd" d="M64.9832 221.487H122.971V163.499H64.9832V221.487ZM123.405 225.487H64.5492C62.5822 225.487 60.9832 223.887 60.9832 221.921V163.065C60.9832 161.098 62.5822 159.499 64.5492 159.499H123.405C125.371 159.499 126.971 161.098 126.971 163.065V221.921C126.971 223.887 125.371 225.487 123.405 225.487Z" fill="#4D0070"/>
<path fill-rule="evenodd" clip-rule="evenodd" d="M110.216 182.65H78.9522C77.8482 182.65 76.9522 181.754 76.9522 180.65C76.9522 179.546 77.8482 178.65 78.9522 178.65H110.216C111.32 178.65 112.216 179.546 112.216 180.65C112.216 181.754 111.32 182.65 110.216 182.65Z" fill="#4D0070"/>
<path fill-rule="evenodd" clip-rule="evenodd" d="M110.216 195.447H78.9522C77.8482 195.447 76.9522 194.551 76.9522 193.447C76.9522 192.343 77.8482 191.447 78.9522 191.447H110.216C111.32 191.447 112.216 192.343 112.216 193.447C112.216 194.551 111.32 195.447 110.216 195.447Z" fill="#4D0070"/>
<path fill-rule="evenodd" clip-rule="evenodd" d="M110.216 208.244H78.9522C77.8482 208.244 76.9522 207.348 76.9522 206.244C76.9522 205.14 77.8482 204.244 78.9522 204.244H110.216C111.32 204.244 112.216 205.14 112.216 206.244C112.216 207.348 111.32 208.244 110.216 208.244Z" fill="#4D0070"/>
<path fill-rule="evenodd" clip-rule="evenodd" d="M68.4438 2.03686L51.1578 2.03186C50.6048 2.03186 50.1578 1.58386 50.1578 1.03186C50.1578 0.47886 50.6058 0.0318604 51.1578 0.0318604L68.4438 0.0368604C68.9968 0.0368604 69.4438 0.48486 69.4438 1.03686C69.4438 1.58986 68.9958 2.03686 68.4438 2.03686Z" fill="#4D0070"/>
<path fill-rule="evenodd" clip-rule="evenodd" d="M1.05124 43.6462H1.04824C0.496241 43.6452 0.0502407 43.1962 0.0512407 42.6432L0.0912407 26.6952C0.110241 19.5462 2.91024 12.8332 7.97824 7.79124C13.0292 2.76524 19.7302 0.000244141 26.8522 0.000244141H26.9222L38.6432 0.0292441C39.1952 0.0302441 39.6412 0.479244 39.6402 1.03224C39.6392 1.58324 39.1912 2.02924 38.6402 2.02924H38.6372L26.9162 2.00024H26.8522C20.2622 2.00024 14.0622 4.55824 9.38824 9.20824C4.69924 13.8742 2.10824 20.0852 2.09124 26.7012L2.05124 42.6492C2.05024 43.2002 1.60224 43.6462 1.05124 43.6462Z" fill="#4D0070"/>
<path fill-rule="evenodd" clip-rule="evenodd" d="M841.544 172.778C841.544 185.706 835.509 196.447 827.409 209.137C820.822 219.453 815.87 229.086 813.44 239.896C812.724 243.089 809.931 245.383 806.658 245.383H769.896C766.623 245.383 763.831 243.089 763.113 239.896C760.684 229.086 755.731 219.453 749.145 209.137C741.046 196.447 735.011 185.706 735.011 172.778C735.011 143.355 758.862 119.504 788.277 119.504C817.691 119.504 841.544 143.355 841.544 172.778Z" fill="#FF9F80"/>
<path fill-rule="evenodd" clip-rule="evenodd" d="M841.544 172.778C841.544 185.706 835.509 196.447 827.409 209.137C820.822 219.453 815.87 229.086 813.44 239.896C812.724 243.089 809.931 245.383 806.658 245.383H769.896C766.623 245.383 763.831 243.089 763.113 239.896C760.684 229.086 755.731 219.453 749.145 209.137C741.046 196.447 735.011 185.706 735.011 172.778C735.011 143.355 758.862 119.504 788.277 119.504C817.691 119.504 841.544 143.355 841.544 172.778Z" fill="white" fill-opacity="0.3" style="mix-blend-mode:soft-light"/>
<path fill-rule="evenodd" clip-rule="evenodd" d="M788.278 121.504C760.009 121.504 737.011 144.506 737.011 172.778C737.011 185.381 743.27 196.214 750.831 208.062C758.594 220.22 762.852 229.609 765.065 239.458C765.585 241.77 767.572 243.384 769.896 243.384H806.659C808.984 243.384 810.97 241.77 811.49 239.458C813.703 229.609 817.961 220.22 825.724 208.062C833.286 196.214 839.545 185.382 839.545 172.778C839.545 144.506 816.547 121.504 788.278 121.504ZM806.659 247.384H769.896C765.687 247.384 762.095 244.485 761.163 240.335C759.057 230.967 754.959 221.958 747.46 210.214C739.554 197.827 733.011 186.461 733.011 172.778C733.011 142.3 757.804 117.504 788.278 117.504C818.752 117.504 843.545 142.3 843.545 172.778C843.545 186.462 837.001 197.828 829.095 210.214C821.596 221.958 817.498 230.967 815.392 240.335C814.461 244.485 810.869 247.384 806.659 247.384Z" fill="#4D0070"/>
<path fill-rule="evenodd" clip-rule="evenodd" d="M794.954 263.844H781.602C774.189 263.844 768.18 257.835 768.18 250.422V245.384H808.377V250.422C808.377 257.835 802.367 263.844 794.954 263.844Z" fill="white"/>
<path fill-rule="evenodd" clip-rule="evenodd" d="M770.179 247.384V250.422C770.179 256.72 775.303 261.844 781.602 261.844H794.953C801.252 261.844 806.376 256.72 806.376 250.422V247.384H770.179ZM794.953 265.844H781.602C773.098 265.844 766.179 258.926 766.179 250.422V243.384H810.376V250.422C810.376 258.926 803.457 265.844 794.953 265.844Z" fill="#4D0070"/>
<path fill-rule="evenodd" clip-rule="evenodd" d="M769.044 255.614H807.091V253.614H769.044V255.614Z" fill="#4D0070"/>
<path fill-rule="evenodd" clip-rule="evenodd" d="M774.141 188.777C773.348 188.777 772.614 189.498 772.214 189.975C771.029 191.391 771.404 192.116 771.848 192.683C772.401 193.393 773.253 193.798 774.186 193.798H777.797C776.79 190.715 775.584 189.186 774.539 188.841C774.406 188.798 774.273 188.777 774.141 188.777ZM798.758 193.798H802.369C803.302 193.798 804.155 193.393 804.706 192.685C805.152 192.116 805.527 191.391 804.341 189.975C803.875 189.419 802.954 188.531 802.016 188.841C800.971 189.186 799.765 190.715 798.758 193.798ZM792.606 247.284C792.57 247.284 792.533 247.283 792.496 247.28C791.449 247.22 790.648 246.323 790.707 245.276C790.707 245.276 791.855 225.095 793.002 205.784C793.183 202.735 793.494 200.003 793.927 197.599H782.628C783.062 200.003 783.372 202.735 783.553 205.784C784.701 225.095 785.848 245.276 785.848 245.276C785.908 246.323 785.107 247.22 784.059 247.28C783.033 247.376 782.114 246.539 782.055 245.491C782.054 245.491 780.908 225.316 779.76 206.008C779.562 202.67 779.209 199.886 778.761 197.599H774.186C772.075 197.599 770.131 196.66 768.853 195.023C767.067 192.739 767.23 190.009 769.3 187.536C771.146 185.332 773.495 184.492 775.73 185.233C778.375 186.106 780.408 189.017 781.763 193.798H794.792C796.148 189.017 798.18 186.106 800.826 185.233C803.067 184.491 805.41 185.333 807.255 187.536C809.326 190.009 809.489 192.739 807.702 195.025C806.424 196.66 804.481 197.599 802.369 197.599H797.794C797.346 199.886 796.994 202.67 796.795 206.008C795.648 225.316 794.501 245.491 794.5 245.491C794.444 246.503 793.606 247.284 792.606 247.284Z" fill="#4D0070"/>
<path fill-rule="evenodd" clip-rule="evenodd" d="M817.427 145.448C817.133 145.448 816.842 145.319 816.645 145.072C813.145 140.687 808.561 137.259 803.388 135.156C802.876 134.948 802.63 134.364 802.838 133.852C803.046 133.341 803.63 133.096 804.142 133.302C809.63 135.535 814.494 139.173 818.207 143.824C818.552 144.256 818.482 144.885 818.05 145.229C817.865 145.377 817.646 145.448 817.427 145.448Z" fill="#4D0070"/>
<path fill-rule="evenodd" clip-rule="evenodd" d="M803.029 321.443C805.836 322.676 808.961 322.975 812.028 321.658C812.741 321.352 812.916 320.693 812.841 320.179C812.769 319.683 812.428 319.122 811.687 319.034C808.797 318.691 805.586 319.628 803.029 321.443ZM809.185 432.515L807.568 431.339C822.233 411.154 808.242 381.961 801.547 370.345C796.969 362.409 794.273 353.738 793.747 345.27C793.63 343.378 793.6 341.469 793.662 339.6C793.913 331.836 795.79 326.086 799.399 322.019C799.46 321.952 799.521 321.883 799.583 321.817C797.296 320.299 795.321 318.281 793.861 316.121C788.993 308.922 788.845 299.793 789.412 290.999L789.564 288.728C790.084 281.147 790.622 273.308 787.886 266.359L789.748 265.627C792.647 272.996 792.094 281.063 791.559 288.865L791.408 291.128C790.864 299.566 790.986 308.299 795.517 315C796.925 317.082 798.855 319.021 801.08 320.409C804.148 317.898 808.197 316.603 811.922 317.047C813.435 317.227 814.6 318.37 814.82 319.892C815.044 321.437 814.239 322.885 812.817 323.496C808.85 325.197 804.835 324.633 801.356 322.856C801.198 323.016 801.044 323.179 800.895 323.347C797.608 327.049 795.896 332.386 795.66 339.665C795.601 341.471 795.63 343.316 795.743 345.147C796.25 353.307 798.856 361.675 803.279 369.346C810.17 381.299 824.54 411.382 809.185 432.515Z" fill="#4D0070"/>
<path fill-rule="evenodd" clip-rule="evenodd" d="M832.398 110.509C832.267 110.509 832.135 110.484 832.008 110.43C831.5 110.214 831.262 109.628 831.477 109.119L836.597 97.0256C836.813 96.5146 837.404 96.2796 837.908 96.4936C838.417 96.7096 838.654 97.2956 838.439 97.8046L833.319 109.899C833.158 110.28 832.787 110.509 832.398 110.509Z" fill="#4D0070"/>
<path fill-rule="evenodd" clip-rule="evenodd" d="M840.879 117.856C840.589 117.856 840.301 117.73 840.104 117.488C839.754 117.06 839.817 116.43 840.246 116.082L850.057 108.076C850.484 107.725 851.114 107.79 851.463 108.218C851.813 108.646 851.749 109.276 851.32 109.625L841.51 117.63C841.324 117.782 841.101 117.856 840.879 117.856Z" fill="#4D0070"/>
<path fill-rule="evenodd" clip-rule="evenodd" d="M848.757 126.729C848.296 126.729 847.882 126.409 847.78 125.94C847.664 125.4 848.007 124.868 848.547 124.751L861.596 121.935C862.136 121.817 862.667 122.162 862.784 122.702C862.901 123.242 862.558 123.774 862.018 123.89L848.969 126.707C848.898 126.722 848.827 126.729 848.757 126.729Z" fill="#4D0070"/>
<path fill-rule="evenodd" clip-rule="evenodd" d="M861.074 457.561C861.074 457.561 847.354 484.035 838.949 513.934C829.414 547.851 828.109 574.227 828.109 574.227H800.328C800.328 574.227 800.305 479.038 861.074 457.561Z" fill="#99D09D"/>
<path fill-rule="evenodd" clip-rule="evenodd" d="M802.37 572.226H826.239C826.744 565.541 828.985 541.987 837.023 513.392C843.319 490.997 852.679 470.315 856.982 461.34C829.653 473.483 816.297 501.999 809.86 524.41C803.667 545.976 802.565 565.98 802.37 572.226ZM828.109 576.226H800.328C799.224 576.226 798.328 575.33 798.328 574.226C798.328 573.986 798.41 549.842 805.99 523.396C816.107 488.098 834.925 464.68 860.408 455.674C861.179 455.402 862.042 455.627 862.583 456.247C863.121 456.866 863.227 457.751 862.849 458.48C862.714 458.744 849.124 485.129 840.875 514.474C831.517 547.757 830.12 574.063 830.106 574.325C830.054 575.39 829.176 576.226 828.109 576.226Z" fill="#4D0070"/>
<path fill-rule="evenodd" clip-rule="evenodd" d="M813.194 575.504C813.172 575.504 813.148 575.503 813.125 575.502C812.574 575.464 812.158 574.986 812.195 574.436C814.453 541.387 821.384 518.435 826.802 504.999C832.698 490.378 838 483.687 838.222 483.408C838.568 482.977 839.198 482.91 839.628 483.254C840.058 483.6 840.128 484.229 839.783 484.659C839.57 484.925 818.466 511.968 814.191 574.572C814.155 575.1 813.715 575.504 813.194 575.504Z" fill="#4D0070"/>
<path fill-rule="evenodd" clip-rule="evenodd" d="M706.598 455.907C705.793 454.907 706.894 453.51 708.057 454.052C717.661 458.529 740.353 469.757 758.052 483.566C795.965 513.147 801.507 574.315 801.51 574.339H801.509H771.354H771.353C771.355 574.32 774.698 537.777 748.507 506.714C728.029 482.426 712.861 463.7 706.598 455.907Z" fill="#99D09D"/>
<path fill-rule="evenodd" clip-rule="evenodd" d="M773.449 572.339H799.263C797.831 561.255 789.627 510.738 756.822 485.143C740.914 472.731 720.765 462.352 710.315 457.333C717.204 465.871 731.496 483.434 750.037 505.424C772.785 532.405 773.671 563.838 773.449 572.339ZM801.511 576.339H771.354C770.805 576.339 770.281 576.113 769.903 575.716C769.526 575.317 769.328 574.781 769.357 574.233C769.491 572.696 772.22 537.94 746.978 508.003C726.182 483.339 710.722 464.232 705.04 457.161C704.099 455.992 704.089 454.35 705.014 453.17C705.941 451.986 707.54 451.605 708.902 452.239C718.054 456.506 741.286 467.947 759.283 481.989C779.196 497.526 790.14 521.654 795.816 539.159C801.954 558.091 803.441 573.502 803.502 574.149C803.553 574.709 803.368 575.267 802.989 575.683C802.61 576.099 802.073 576.339 801.511 576.339Z" fill="#4D0070"/>
<path fill-rule="evenodd" clip-rule="evenodd" d="M786.046 575.339C785.515 575.339 785.073 574.921 785.048 574.385C782.706 523.813 746.277 486.423 745.91 486.051C745.522 485.658 745.525 485.026 745.918 484.637C746.312 484.249 746.944 484.251 747.332 484.645C747.705 485.022 784.669 522.962 787.046 574.293C787.071 574.845 786.645 575.313 786.093 575.338C786.077 575.339 786.062 575.339 786.046 575.339Z" fill="#4D0070"/>
<path fill-rule="evenodd" clip-rule="evenodd" d="M766.334 574.337C756.594 532.475 715.534 509.761 715.534 509.761C715.534 509.761 772.802 506.103 792.297 574.337H766.334Z" fill="#99D09D"/>
<g opacity="0.2">
<path fill-rule="evenodd" clip-rule="evenodd" d="M766.334 574.337C756.594 532.475 715.534 509.761 715.534 509.761C715.534 509.761 772.802 506.103 792.297 574.337H766.334Z" fill="black" fill-opacity="0.5" style="mix-blend-mode:hard-light"/>
</g>
<path fill-rule="evenodd" clip-rule="evenodd" d="M767.907 572.337H789.618C779.526 539.613 760.308 524.886 745.778 518.281C736.797 514.199 728.512 512.638 722.916 512.058C734.861 520.245 759.892 540.655 767.907 572.337ZM792.298 576.337H766.335C765.405 576.337 764.597 575.696 764.386 574.79C754.957 534.263 714.969 511.733 714.567 511.511C713.79 511.081 713.389 510.19 713.584 509.323C713.778 508.456 714.521 507.821 715.407 507.765C716.014 507.729 730.42 506.907 747.433 514.641C763.103 521.763 783.94 537.805 794.22 573.787C794.393 574.391 794.272 575.04 793.894 575.541C793.516 576.042 792.926 576.337 792.298 576.337Z" fill="#4D0070"/>
<path fill-rule="evenodd" clip-rule="evenodd" d="M781.245 575.339C780.803 575.339 780.397 575.043 780.279 574.595C774.189 551.558 759.089 536.481 758.936 536.33C758.543 535.943 758.539 535.31 758.927 534.916C759.313 534.523 759.945 534.517 760.341 534.906C760.496 535.06 775.984 550.523 782.213 574.083C782.354 574.617 782.035 575.164 781.502 575.306C781.416 575.328 781.33 575.339 781.245 575.339Z" fill="#4D0070"/>
<path fill-rule="evenodd" clip-rule="evenodd" d="M792.548 574.326C792.437 574.326 792.334 574.268 792.282 574.17C785.972 562.245 791.706 505.396 791.966 484.152C792.309 456.047 774.822 437.278 769.728 432.412C769.483 432.178 769.755 431.781 770.06 431.928C776.097 434.83 798.434 445.563 809.969 472.946C820.621 498.234 818.324 551.393 813.485 574.093C813.454 574.231 813.333 574.326 813.193 574.326H792.548Z" fill="#99D09D"/>
<path fill-rule="evenodd" clip-rule="evenodd" d="M792.548 574.326C792.437 574.326 792.334 574.268 792.282 574.17C785.972 562.245 791.706 505.396 791.966 484.152C792.309 456.047 774.822 437.278 769.728 432.412C769.483 432.178 769.755 431.781 770.06 431.928C776.097 434.83 798.434 445.563 809.969 472.946C820.621 498.234 818.324 551.393 813.485 574.093C813.454 574.231 813.333 574.326 813.193 574.326H792.548Z" fill="white" fill-opacity="0.3" style="mix-blend-mode:soft-light"/>
<path fill-rule="evenodd" clip-rule="evenodd" d="M793.634 572.326H811.806C816.177 550.235 818.68 498.776 808.126 473.722C801.902 458.948 791.748 447.132 777.879 438.492C785.053 447.634 794.219 463.42 793.966 484.177C793.896 489.903 793.441 498.018 792.914 507.415C791.598 530.902 789.812 562.779 793.634 572.326ZM813.193 576.326H792.548C791.689 576.326 790.908 575.856 790.512 575.099C785.632 565.879 787.455 533.338 788.921 507.191C789.445 497.842 789.898 489.766 789.966 484.128C790.297 456.961 773.502 438.782 768.346 433.858C767.524 433.071 767.397 431.822 768.044 430.888C768.69 429.955 769.903 429.635 770.926 430.125C790.21 439.395 803.965 453.541 811.812 472.17C822.905 498.505 820.071 552.793 815.441 574.51C815.206 575.583 814.282 576.326 813.193 576.326Z" fill="#4D0070"/>
<path fill-rule="evenodd" clip-rule="evenodd" d="M803.278 555.966C802.78 555.966 802.349 555.595 802.287 555.088C802.233 554.655 801.007 544.129 803.375 512.317C803.595 509.345 803.748 506.462 803.825 503.747C803.84 503.195 804.326 502.792 804.853 502.776C805.406 502.792 805.841 503.252 805.825 503.804C805.746 506.55 805.592 509.463 805.369 512.465C803.022 544.007 804.258 554.739 804.271 554.844C804.339 555.393 803.949 555.891 803.401 555.958C803.359 555.963 803.318 555.966 803.278 555.966Z" fill="#4D0070"/>
<path fill-rule="evenodd" clip-rule="evenodd" d="M804.867 497.886C804.314 497.886 803.867 497.439 803.867 496.886C803.867 456.712 769.84 432.989 769.496 432.753C769.04 432.442 768.923 431.82 769.235 431.364C769.547 430.908 770.168 430.79 770.625 431.103C770.977 431.343 805.867 455.669 805.867 496.886C805.867 497.439 805.42 497.886 804.867 497.886Z" fill="#4D0070"/>
<path fill-rule="evenodd" clip-rule="evenodd" d="M803.876 574.227C803.876 574.227 823.403 504.738 897.076 511.206C897.076 511.206 843.819 525.408 836.718 574.227H803.876Z" fill="#99D09D"/>
<path fill-rule="evenodd" clip-rule="evenodd" d="M806.642 572.226H835.009C838.381 552.422 849.91 535.346 868.436 522.754C875.209 518.151 881.744 514.919 886.808 512.776C861.547 512.93 840.615 522.556 824.469 541.472C813.901 553.855 808.553 566.861 806.642 572.226ZM836.718 576.226H803.876C803.25 576.226 802.661 575.933 802.283 575.434C801.905 574.935 801.782 574.288 801.951 573.685C802.155 572.958 807.115 555.699 821.326 538.994C834.488 523.523 858.344 505.792 897.251 509.213C898.218 509.298 898.984 510.065 899.069 511.032C899.153 511.998 898.531 512.887 897.593 513.138C897.073 513.277 845.522 527.602 838.698 574.514C838.554 575.497 837.711 576.226 836.718 576.226Z" fill="#4D0070"/>
<path fill-rule="evenodd" clip-rule="evenodd" d="M821.168 575.227C821.125 575.227 821.081 575.224 821.036 575.218C820.489 575.146 820.104 574.644 820.176 574.096C822.702 554.897 831.118 546.443 831.476 546.092C831.868 545.706 832.499 545.71 832.888 546.105C833.274 546.498 833.27 547.13 832.878 547.519C832.795 547.6 824.588 555.899 822.158 574.358C822.092 574.861 821.662 575.227 821.168 575.227Z" fill="#4D0070"/>
<path fill-rule="evenodd" clip-rule="evenodd" d="M855.601 579.247L854.666 590.96L853.436 606.474L850.204 647.034H752.813L749.581 606.474L748.351 590.96L747.416 579.247C747.205 576.599 749.293 574.34 751.949 574.34H851.076C853.723 574.34 855.811 576.599 855.601 579.247Z" fill="white"/>
<path fill-rule="evenodd" clip-rule="evenodd" d="M754.66 645.034H848.357L853.607 579.088C853.664 578.37 853.427 577.684 852.939 577.155C852.454 576.63 851.791 576.34 851.076 576.34H751.949C751.229 576.34 750.564 576.63 750.077 577.158C749.589 577.685 749.353 578.37 749.411 579.088L754.66 645.034ZM850.204 649.034H752.813C751.77 649.034 750.902 648.232 750.819 647.193L745.422 579.406C745.278 577.59 745.903 575.781 747.138 574.444C748.372 573.106 750.126 572.34 751.949 572.34H851.076C852.893 572.34 854.643 573.105 855.877 574.441C857.113 575.778 857.739 577.588 857.595 579.405V579.406L852.198 647.193C852.115 648.232 851.247 649.034 850.204 649.034Z" fill="#4D0070"/>
<path fill-rule="evenodd" clip-rule="evenodd" d="M824.215 590.96H854.666L853.436 606.474H749.581L748.351 590.96H813.193" fill="#FF80B0"/>
<path fill-rule="evenodd" clip-rule="evenodd" d="M853.436 608.473H749.582C748.539 608.473 747.67 607.671 747.587 606.631L746.357 591.118C746.313 590.561 746.503 590.012 746.882 589.602C747.26 589.193 747.793 588.959 748.351 588.959H813.193C814.297 588.959 815.193 589.855 815.193 590.959C815.193 592.064 814.297 592.959 813.193 592.959H750.516L751.429 604.473H851.588L852.501 592.959H824.215C823.111 592.959 822.215 592.064 822.215 590.959C822.215 589.855 823.111 588.959 824.215 588.959H854.666C855.224 588.959 855.757 589.193 856.135 589.602C856.514 590.012 856.705 590.561 856.661 591.118L855.43 606.631C855.347 607.671 854.479 608.473 853.436 608.473Z" fill="#4D0070"/>
<path fill-rule="evenodd" clip-rule="evenodd" d="M806.724 632.747C806.614 632.747 806.502 632.729 806.392 632.69L793.598 628.189C793.078 628.006 792.803 627.435 792.987 626.914C793.17 626.393 793.739 626.119 794.262 626.303L807.056 630.804C807.577 630.987 807.851 631.558 807.667 632.079C807.523 632.49 807.136 632.747 806.724 632.747Z" fill="#4D0070"/>
<path fill-rule="evenodd" clip-rule="evenodd" d="M805.573 625.505C805.463 625.505 805.351 625.487 805.241 625.448L800.762 623.873C800.242 623.69 799.968 623.119 800.151 622.598C800.334 622.076 800.905 621.801 801.427 621.986L805.905 623.562C806.426 623.745 806.7 624.316 806.516 624.837C806.372 625.248 805.985 625.505 805.573 625.505Z" fill="#4D0070"/>
<path fill-rule="evenodd" clip-rule="evenodd" d="M842.377 575.226C842.33 575.226 842.283 575.223 842.235 575.216C841.689 575.138 841.309 574.632 841.386 574.085C841.465 573.526 843.478 560.326 856.389 556.205C856.911 556.037 857.478 556.329 857.646 556.855C857.813 557.38 857.523 557.944 856.996 558.112C845.27 561.854 843.384 574.242 843.366 574.367C843.295 574.866 842.867 575.226 842.377 575.226Z" fill="#4D0070"/>
<path fill-rule="evenodd" clip-rule="evenodd" d="M739.483 557.101C739.456 557.118 739.428 557.134 739.4 557.152C737.854 558.093 737.168 559.197 737.468 560.258C737.771 561.327 739.022 562.224 740.204 562.224H740.214C741.243 562.219 741.971 561.538 742.321 560.254C742.5 559.6 742.409 559.074 742.036 558.598C741.547 557.976 740.629 557.484 739.483 557.101ZM759.637 575.504C759.166 575.504 758.746 575.169 758.656 574.689C758.627 574.537 755.686 559.354 748.097 555.975C746.183 555.122 744.089 555.115 741.849 555.947C742.564 556.337 743.17 556.805 743.609 557.364C744.373 558.336 744.594 559.518 744.251 560.78C743.666 562.927 742.161 564.214 740.225 564.224H740.204C738.132 564.224 736.088 562.725 735.545 560.803C735.324 560.025 735.11 558.234 736.973 556.483C734.658 556.064 732.061 555.922 730.188 555.979H730.161C729.621 555.979 729.176 555.548 729.162 555.005C729.147 554.454 729.584 553.994 730.135 553.979C730.867 553.964 735.473 553.887 739.25 554.934C742.693 553.088 745.941 552.825 748.914 554.149C757.458 557.956 760.496 573.654 760.621 574.32C760.723 574.863 760.366 575.385 759.823 575.487C759.76 575.498 759.699 575.504 759.637 575.504Z" fill="#4D0070"/>
<path fill-rule="evenodd" clip-rule="evenodd" d="M756.699 575.226C756.276 575.226 755.883 574.955 755.747 574.532C754.401 570.337 750.717 568.409 750.68 568.39C750.189 568.138 749.994 567.537 750.244 567.045C750.494 566.555 751.093 566.357 751.585 566.606C751.766 566.698 756.043 568.908 757.651 573.92C757.82 574.447 757.53 575.009 757.005 575.178C756.903 575.21 756.8 575.226 756.699 575.226Z" fill="#4D0070"/>
</svg>
