<?xml version="1.0" encoding="UTF-8" standalone="no"?>
<!DOCTYPE svg PUBLIC "-//W3C//DTD SVG 1.1//EN" "http://www.w3.org/Graphics/SVG/1.1/DTD/svg11.dtd">
<svg width="100%" height="100%" viewBox="0 0 3889 1297" version="1.1" xmlns="http://www.w3.org/2000/svg" xmlns:xlink="http://www.w3.org/1999/xlink" xml:space="preserve" xmlns:serif="http://www.serif.com/" style="fill-rule:evenodd;clip-rule:evenodd;stroke-linecap:round;stroke-linejoin:round;stroke-miterlimit:1.5;">
    <g transform="matrix(5.55556,0,0,5.55556,0,0)">
        <g transform="matrix(0.826161,0,0,0.836578,179.733,-329.636)">
            <path d="M529.181,451.048C529.181,451.048 518.041,468.45 522.303,480.833C526.565,493.216 538.725,499.286 538.725,499.286C538.725,499.286 548.495,487.274 546.79,473.32C545.085,459.366 529.181,451.048 529.181,451.048Z" style="fill:rgb(252,25,56);"/>
        </g>
        <g transform="matrix(0.766447,0,0,0.816064,-79.995,-293.014)">
            <circle cx="910.544" cy="512.225" r="40.456" style="fill:rgb(252,25,56);stroke:rgb(252,25,56);stroke-width:7.58px;"/>
        </g>
        <g transform="matrix(0.830658,0.724699,-0.715675,0.841133,547.509,-708.607)">
            <path d="M529.181,451.048C529.181,451.048 518.041,468.45 522.303,480.833C526.565,493.216 538.725,499.286 538.725,499.286C538.725,499.286 548.495,487.274 546.79,473.32C545.085,459.366 529.181,451.048 529.181,451.048Z" style="fill:rgb(252,25,56);"/>
        </g>
        <g transform="matrix(0.663081,0,0,0.671442,1.88861,-237.883)">
            <circle cx="889.197" cy="555.434" r="25.573" style="fill:rgb(252,25,56);"/>
        </g>
        <g transform="matrix(1,0,0,1,-185.64,53.6172)">
            <path d="M228.945,101.023L247.924,101.023C260.416,101.023 267.663,93.656 267.663,83.046C267.663,78.521 265.541,74.798 261.617,72.195C265.421,69.553 267.543,65.789 267.543,61.064C267.543,50.574 260.256,43.367 247.964,43.367L228.945,43.367C224.301,43.447 221.298,46.69 221.298,51.495L221.298,92.895C221.298,97.7 224.301,100.943 228.945,101.023ZM236.953,85.848L236.953,77.68L248.164,77.68C249.846,77.68 251.287,79.242 251.287,81.764C251.287,84.367 249.846,85.848 248.164,85.848L236.953,85.848ZM236.953,66.389L236.953,58.542L248.004,58.542C249.726,58.542 251.167,60.143 251.167,62.546C251.167,64.788 249.686,66.389 248.004,66.389L236.953,66.389Z" style="fill:rgb(252,25,56);fill-rule:nonzero;"/>
            <path d="M294.609,102.224C299.935,102.224 304.459,100.663 307.742,97.62C309.984,100.383 313.308,102.024 317.271,102.024C320.675,102.024 324.238,100.423 326.24,98.14C328.002,96.098 328.763,94.096 328.763,91.534C328.763,88.731 327.081,86.569 324.919,86.569C323.958,86.569 323.397,86.729 322.477,87.33C321.956,87.65 321.476,87.77 320.875,87.77C320.154,87.77 319.754,87.45 319.754,86.929L319.754,71.795C319.754,61.104 312.547,55.779 300.695,55.779C292.407,55.779 285.04,58.342 280.516,62.986C278.714,64.868 278.033,66.83 278.033,68.792C278.033,72.075 280.476,74.197 284.119,74.197C285.961,74.197 287.522,73.516 290.686,71.635C293.889,69.753 297.572,68.471 300.215,68.471C302.978,68.471 304.659,69.312 304.659,70.754C304.659,72.075 303.698,72.996 301.696,73.476L290.806,75.999C282.478,77.921 278.394,82.245 278.394,89.092C278.394,96.899 285,102.224 294.609,102.224ZM294.369,87.81C294.369,86.129 295.971,84.647 298.493,84.127L301.616,83.486C302.817,83.246 303.858,82.805 304.659,82.245L304.659,86.729C304.659,89.132 302.297,90.773 298.894,90.773C296.171,90.773 294.369,89.572 294.369,87.81Z" style="fill:rgb(252,25,56);fill-rule:nonzero;"/>
            <path d="M362.796,102.224C374.968,102.224 384.337,93.015 384.337,79.002C384.337,64.988 374.968,55.779 362.796,55.779C358.111,55.779 354.107,57.14 351.225,59.583L351.225,50.174C351.225,45.569 348.182,42.366 343.737,42.366C339.333,42.366 336.25,45.569 336.25,50.174L336.25,94.217C336.25,98.821 339.333,102.024 343.737,102.024C346.78,102.024 349.183,100.503 350.384,98.1C353.427,101.063 357.431,102.224 362.796,102.224ZM351.024,79.002C351.024,73.356 354.748,69.392 359.993,69.392C365.238,69.392 368.962,73.356 368.962,79.002C368.962,84.647 365.238,88.611 359.993,88.611C354.748,88.611 351.024,84.647 351.024,79.002Z" style="fill:rgb(252,25,56);fill-rule:nonzero;"/>
            <path d="M396.629,70.153L409.041,96.419C408.04,97.219 406.799,97.74 405.558,97.74C404.557,97.74 402.875,97.26 401.594,96.739C400.673,96.379 399.512,96.098 398.791,96.098C395.268,96.098 392.585,99.502 392.585,103.305C392.585,105.307 393.466,107.149 395.107,108.39C398.391,110.873 401.634,111.834 406.318,111.834C414.446,111.834 420.172,108.15 423.815,100.463L438.269,69.993C439.751,66.87 440.432,64.107 440.432,62.105C440.432,58.502 437.269,55.779 433.104,55.779C428.78,55.779 426.818,57.981 424.256,63.827L417.329,79.482L410.362,63.387C408.32,58.662 406.599,55.779 401.594,55.779C397.149,55.779 394.106,58.502 394.106,62.426C394.106,64.107 394.987,66.67 396.629,70.153Z" style="fill:rgb(252,25,56);fill-rule:nonzero;"/>
            <path d="M458.97,111.834C463.414,111.834 466.497,108.631 466.497,104.026L466.497,98.861C469.38,101.263 473.104,102.224 478.108,102.224C490.32,102.224 499.729,93.015 499.729,79.002C499.729,64.988 490.32,55.779 478.108,55.779C473.023,55.779 468.699,57.381 465.776,60.223C464.655,57.621 462.133,55.979 458.97,55.979C454.565,55.979 451.482,59.182 451.482,63.787L451.482,104.026C451.482,108.631 454.565,111.834 458.97,111.834ZM466.297,79.002C466.297,73.356 470.021,69.392 475.306,69.392C480.591,69.392 484.354,73.356 484.354,79.002C484.354,84.647 480.591,88.611 475.306,88.611C470.021,88.611 466.297,84.647 466.297,79.002Z" style="fill:rgb(252,25,56);fill-rule:nonzero;"/>
            <path d="M532.241,102.224C546.535,102.224 556.985,93.256 556.985,79.002C556.985,64.748 546.535,55.779 532.241,55.779C517.947,55.779 507.497,64.748 507.497,79.002C507.497,93.256 517.947,102.224 532.241,102.224ZM522.872,79.002C522.872,73.356 526.756,69.392 532.241,69.392C537.727,69.392 541.61,73.356 541.61,79.002C541.61,84.647 537.727,88.611 532.241,88.611C526.756,88.611 522.872,84.647 522.872,79.002Z" style="fill:rgb(252,25,56);fill-rule:nonzero;"/>
            <path d="M574.683,55.979C570.318,55.979 567.195,59.263 567.195,63.787L567.195,83.406C567.195,95.458 575.083,102.224 586.214,102.224C591.179,102.224 595.783,100.663 598.466,97.62C599.627,100.343 602.109,102.024 605.312,102.024C609.717,102.024 612.8,98.821 612.8,94.217L612.8,63.787C612.8,59.182 609.717,55.979 605.312,55.979C600.908,55.979 597.825,59.182 597.825,63.787L597.825,81.324C597.825,85.848 594.742,88.731 589.978,88.731C585.133,88.731 582.17,86.009 582.17,81.324L582.17,63.787C582.17,59.343 579.127,55.979 574.683,55.979Z" style="fill:rgb(252,25,56);fill-rule:nonzero;"/>
            <path d="M648.715,102.224C656.242,102.224 662.568,99.782 666.212,96.219C668.975,93.496 670.056,90.613 670.056,88.411C670.056,84.807 667.013,82.045 663.489,82.045C660.727,82.045 658.885,83.006 656.923,85.248C655.001,87.45 652.879,88.611 649.195,88.611C643.99,88.611 639.666,84.727 639.666,79.002C639.666,73.276 643.99,69.392 649.195,69.392C652.278,69.392 654.721,70.473 656.522,72.275C658.845,74.597 660.847,75.799 663.81,75.799C667.413,75.799 669.976,73.076 669.976,69.512C669.976,67.03 668.935,64.307 666.292,61.705C662.688,58.181 656.963,55.779 648.715,55.779C634.821,55.779 624.251,65.348 624.251,79.002C624.251,92.655 634.821,102.224 648.715,102.224Z" style="fill:rgb(252,25,56);fill-rule:nonzero;"/>
            <path d="M689.795,101.904C694.239,101.904 697.282,98.701 697.282,94.136L697.282,76.679C697.282,72.155 700.365,69.272 705.13,69.272C709.975,69.272 712.937,71.995 712.937,76.679L712.937,94.217C712.937,98.661 715.98,102.024 720.425,102.024C724.789,102.024 727.912,98.741 727.912,94.217L727.912,74.597C727.912,62.546 720.024,55.779 708.894,55.779C704.329,55.779 700.045,57.1 697.282,59.703L697.282,50.014C697.282,45.449 694.239,42.246 689.795,42.246C685.351,42.246 682.308,45.449 682.308,50.014L682.308,94.136C682.308,98.701 685.351,101.904 689.795,101.904Z" style="fill:rgb(252,25,56);fill-rule:nonzero;"/>
        </g>
    </g>
</svg>
