<?xml version="1.0" encoding="UTF-8" standalone="no"?>
<!DOCTYPE svg PUBLIC "-//W3C//DTD SVG 1.1//EN" "http://www.w3.org/Graphics/SVG/1.1/DTD/svg11.dtd">
<svg width="100%" height="100%" viewBox="0 0 1667 1667" version="1.1" xmlns="http://www.w3.org/2000/svg" xmlns:xlink="http://www.w3.org/1999/xlink" xml:space="preserve" xmlns:serif="http://www.serif.com/" style="fill-rule:evenodd;clip-rule:evenodd;stroke-linecap:round;stroke-linejoin:round;stroke-miterlimit:1.5;">
    <g transform="matrix(5.55556,0,0,5.55556,0,0)">
        <g transform="matrix(2.05731,0,0,2.08325,-949.204,-929.063)">
            <path d="M529.181,451.048C529.181,451.048 518.041,468.45 522.303,480.833C526.565,493.216 538.725,499.286 538.725,499.286C538.725,499.286 548.495,487.274 546.79,473.32C545.085,459.366 529.181,451.048 529.181,451.048Z" style="fill:rgb(252,25,56);"/>
        </g>
        <g transform="matrix(1.90861,0,0,2.03216,-1595.98,-837.866)">
            <circle cx="910.544" cy="512.225" r="40.456" style="fill:rgb(252,25,56);stroke:rgb(252,25,56);stroke-width:3.04px;"/>
        </g>
        <g transform="matrix(2.06851,1.80465,-1.78217,2.09459,-33.3676,-1872.78)">
            <path d="M529.181,451.048C529.181,451.048 518.041,468.45 522.303,480.833C526.565,493.216 538.725,499.286 538.725,499.286C538.725,499.286 548.495,487.274 546.79,473.32C545.085,459.366 529.181,451.048 529.181,451.048Z" style="fill:rgb(252,25,56);"/>
        </g>
        <g transform="matrix(1.6512,0,0,1.67202,-1392.07,-700.579)">
            <circle cx="889.197" cy="555.434" r="25.573" style="fill:rgb(252,25,56);"/>
        </g>
    </g>
</svg>
